<?xml version="1.0" encoding="UTF-8" standalone="no"?>
<svg
   xmlns:dc="http://purl.org/dc/elements/1.1/"
   xmlns:cc="http://creativecommons.org/ns#"
   xmlns:rdf="http://www.w3.org/1999/02/22-rdf-syntax-ns#"
   xmlns:svg="http://www.w3.org/2000/svg"
   xmlns="http://www.w3.org/2000/svg"
   xmlns:sodipodi="http://sodipodi.sourceforge.net/DTD/sodipodi-0.dtd"
   xmlns:inkscape="http://www.inkscape.org/namespaces/inkscape"
   width="64"
   height="64"
   version="1"
   id="svg1124"
   sodipodi:docname="evolution.svg"
   inkscape:version="0.92.4 (5da689c313, 2019-01-14)">
  <metadata
     id="metadata1128">
    <rdf:RDF>
      <cc:Work
         rdf:about="">
        <dc:format>image/svg+xml</dc:format>
        <dc:type
           rdf:resource="http://purl.org/dc/dcmitype/StillImage" />
        <dc:title></dc:title>
      </cc:Work>
    </rdf:RDF>
  </metadata>
  <sodipodi:namedview
     pagecolor="#ffffff"
     bordercolor="#666666"
     borderopacity="1"
     objecttolerance="10"
     gridtolerance="10"
     guidetolerance="10"
     inkscape:pageopacity="0"
     inkscape:pageshadow="2"
     inkscape:window-width="1920"
     inkscape:window-height="1023"
     id="namedview1126"
     showgrid="false"
     inkscape:zoom="12.9375"
     inkscape:cx="32"
     inkscape:cy="32"
     inkscape:window-x="0"
     inkscape:window-y="31"
     inkscape:window-maximized="1"
     inkscape:current-layer="svg1124" />
  <defs
     id="defs1106">
    <clipPath
       id="clipPath4403"
       clipPathUnits="userSpaceOnUse">
      <path
         style="fill:#fe9700"
         d="m 160,238 -19.09,14.324 c -0.0411,0.0267 -0.0783,0.0583 -0.1172,0.0879 l -0.0234,0.0176 0,0.003 c -0.46558,0.36557 -0.76954,0.92787 -0.76954,1.5684 l 2e-5,17.427 c 0,2.8571 2.2529,2.8571 2.8571,2.8571 l 34.286,0 c 0,0 2.8571,0 2.8571,-2.8571 l -3e-5,-17.427 c 0,-0.65501 -0.31697,-1.2294 -0.80077,-1.5938 l 0.009,-0.0114 -19.207,-14.395 z"
         id="path1100" />
    </clipPath>
    <filter
       id="filter4507"
       style="color-interpolation-filters:sRGB"
       width="1.218"
       height="1.268"
       x="-.11"
       y="-.13">
      <feGaussianBlur
         stdDeviation="1.45"
         id="feGaussianBlur1103" />
    </filter>
  </defs>
  <path
     style="opacity:0.2"
     d="m 4.0002398,55.999397 0,1.999934 c 0,2.474719 1.3654752,3.572483 2.9647026,3.886673 L 6.8009478,62 57.199292,62 57.007898,61.867184 C 59.968401,61.242485 60,58.000111 60,58.000111 l 0,-1.999934 c 0,0 -0.03158,3.242294 -2.992102,3.867073 l 0.191994,0.131996 -50.3983442,0 0.1639946,-0.113997 C 5.3663949,59.57126 4.0008398,58.473296 4.0008398,55.999377 Z"
     id="path1108" />
  <path
     style="fill:#666666"
     d="m 5.274198,22.654525 c -0.057498,0.0374 -0.1096164,0.0816 -0.1640746,0.122996 l -0.032799,0.0246 0,0.004 c -0.6517785,0.511784 -1.0773246,1.298978 -1.0773246,2.195728 l 3e-5,24.397199 c 4e-6,3.999868 3.1540964,3.999868 3.9998686,3.999868 l 47.9984236,0 c 0,0 3.999868,0 3.999868,-3.999868 l -4e-5,-24.397199 c 0,-0.91699 -0.443745,-1.721063 -1.121043,-2.231126 l 0.012,-0.016 L 31.99999,3.0033709 c 0,0 -26.8891167,19.7765501 -26.7251221,19.6535541 z"
     id="path1110" />
  <rect
     style="opacity:0.2;filter:url(#filter4507)"
     width="32"
     height="26"
     x="144"
     y="243"
     clip-path="url(#clipPath4403)"
     rx="2"
     ry="2"
     transform="matrix(1.399954,0,0,1.399954,-191.99332,-330.58787)"
     id="rect1112" />
  <rect
     style="fill:#ebebeb"
     width="43.999"
     height="35.999"
     x="10"
     y="9"
     rx="3"
     ry="2.998"
     id="rect1114" />
  <path
     style="opacity:0.1;fill:#ffffff"
     d="m 12.999944,9.0029738 c -1.661945,0 -2.999901,1.3373562 -2.999901,2.9979012 l 0,0.999968 c 0,-1.660546 1.337956,-2.997902 2.999901,-2.997902 l 37.998752,0 c 1.661945,0 2.999901,1.337356 2.999901,2.997902 l 0,-0.999968 c 0,-1.660545 -1.337956,-2.9979012 -2.999901,-2.9979012 l -37.998752,0 z"
     id="path1116" />
  <path
     style="fill:#808080"
     d="m 4.0002398,25.000448 51.9982922,35.998818 -47.9984236,0 C 6.0001741,60.99925 4.0002398,60.010298 4.0002398,57.043396 Z"
     id="path1118" />
  <path
     style="fill:#b3b3b3"
     d="m 55.998532,60.999266 c 3.999868,0 3.999868,-3.95587 3.999868,-3.95587 l 0,-32.042948 -51.9982916,35.998818 z"
     id="path1120" />
  <path
     style="fill:#aa0000"
     d="m 31.99932,15.000777 a 9.9996715,9.9996715 0 0 0 -9.999671,9.999671 9.9996715,9.9996715 0 0 0 9.999671,9.999672 l 6.99977,0 c 0.553982,0 0.999967,-0.445986 0.999967,-0.999967 0,-0.553982 -0.445985,-0.999968 -0.999967,-0.999968 l -6.99977,0 a 7.9997372,7.9997372 0 0 1 -7.999737,-7.999737 7.9997372,7.9997372 0 0 1 7.999737,-7.999737 7.9997372,7.9997372 0 0 1 7.999737,7.999737 l 0,2.999902 c 0,0.553982 -0.445985,0.999967 -0.999967,0.999967 -0.553982,0 -0.999967,-0.445985 -0.999967,-0.999967 l 0,-2.999902 a 5.9998029,5.9998029 0 0 0 -5.999803,-5.999803 5.9998029,5.9998029 0 0 0 -5.999803,5.999803 5.9998029,5.9998029 0 0 0 5.999803,5.999803 5.9998029,5.9998029 0 0 0 4.26166,-1.781181 c 0.465985,1.049965 1.51195,1.781941 2.73791,1.781941 1.661945,0 2.999902,-1.337956 2.999902,-2.999901 l 0,-2.999902 A 9.9996715,9.9996715 0 0 0 31.99912,15.001537 Z m 0,5.999803 a 3.9998686,3.9998686 0 0 1 3.999869,3.999868 3.9998686,3.9998686 0 0 1 -3.999869,3.999869 3.9998686,3.9998686 0 0 1 -3.999869,-3.999869 3.9998686,3.9998686 0 0 1 3.999869,-3.999868 z"
     id="path1122" />
</svg>
