<?xml version="1.0" encoding="UTF-8" standalone="no"?>
<!-- Created with Inkscape (http://www.inkscape.org/) -->

<svg
   xmlns:dc="http://purl.org/dc/elements/1.1/"
   xmlns:cc="http://creativecommons.org/ns#"
   xmlns:rdf="http://www.w3.org/1999/02/22-rdf-syntax-ns#"
   xmlns:svg="http://www.w3.org/2000/svg"
   xmlns="http://www.w3.org/2000/svg"
   xmlns:sodipodi="http://sodipodi.sourceforge.net/DTD/sodipodi-0.dtd"
   xmlns:inkscape="http://www.inkscape.org/namespaces/inkscape"
   width="64"
   height="64"
   id="svg6685"
   version="1.1"
   inkscape:version="0.92.4 (5da689c313, 2019-01-14)"
   sodipodi:docname="pi-packages.svg">
  <defs
     id="defs6687" />
  <sodipodi:namedview
     id="base"
     pagecolor="#ffffff"
     bordercolor="#666666"
     borderopacity="1.0"
     inkscape:pageopacity="0.0"
     inkscape:pageshadow="2"
     inkscape:zoom="11.112423"
     inkscape:cx="28.806965"
     inkscape:cy="32.235741"
     inkscape:current-layer="layer1"
     showgrid="false"
     inkscape:grid-bbox="true"
     inkscape:document-units="px"
     inkscape:snap-nodes="false"
     inkscape:snap-bbox="true"
     inkscape:window-width="1920"
     inkscape:window-height="1021"
     inkscape:window-x="0"
     inkscape:window-y="30"
     inkscape:window-maximized="1">
    <inkscape:grid
       type="xygrid"
       id="grid6693" />
  </sodipodi:namedview>
  <metadata
     id="metadata6690">
    <rdf:RDF>
      <cc:Work
         rdf:about="">
        <dc:format>image/svg+xml</dc:format>
        <dc:type
           rdf:resource="http://purl.org/dc/dcmitype/StillImage" />
        <dc:title></dc:title>
      </cc:Work>
    </rdf:RDF>
  </metadata>
  <g
     id="layer1"
     inkscape:label="Layer 1"
     inkscape:groupmode="layer"
     transform="translate(0,48)">
    <path
       inkscape:connector-curvature="0"
       style="color:#000000;display:inline;overflow:visible;visibility:visible;fill:#bebebe;fill-opacity:1;fill-rule:nonzero;stroke:none;stroke-width:4.04145145;marker:none;enable-background:accumulate"
       d="m 32,-44 c -7.715633,0 -14,4.713275 -14,10.5 V -30 H 9.1041667 C 6.2764467,-30 4,-28.292665 4,-26.171875 V 8.171875 C 4,10.292665 6.2764467,12 9.1041667,12 H 54.895833 C 57.723553,12 60,10.292665 60,8.171875 v -34.34375 C 60,-28.292665 57.723553,-30 54.895833,-30 H 46 v -3.5 C 46,-39.286725 39.715633,-44 32,-44 Z m 0,3.5 c 5.211033,0 9.333333,3.091725 9.333333,7 V -30 H 22.666667 v -3.5 c 0,-3.908275 4.1223,-7 9.333333,-7 z m -11.8125,14 c 1.338353,0 2.479167,0.78351 2.479167,1.75 0,0.96649 -1.140814,1.75 -2.479167,1.75 -1.338353,0 -2.333333,-0.78351 -2.333333,-1.75 0,-0.96649 0.99498,-1.75 2.333333,-1.75 z m 23.333333,0 C 44.859187,-26.5 46,-25.71649 46,-24.75 c 0,0.96649 -1.140813,1.75 -2.479167,1.75 -1.338353,0 -2.333333,-0.78351 -2.333333,-1.75 0,-0.96649 0.99498,-1.75 2.333333,-1.75 z"
       id="rect43509-3-4-3"
       inkscape:label="gnome-software" />
  </g>
</svg>
