<?xml version="1.0" encoding="UTF-8" standalone="no"?>
<!-- Designed by Vexels.com - 2016 All Rights Reserved - https://vexels.com/terms-and-conditions/  -->

<svg
   xmlns:dc="http://purl.org/dc/elements/1.1/"
   xmlns:cc="http://creativecommons.org/ns#"
   xmlns:rdf="http://www.w3.org/1999/02/22-rdf-syntax-ns#"
   xmlns:svg="http://www.w3.org/2000/svg"
   xmlns="http://www.w3.org/2000/svg"
   xmlns:sodipodi="http://sodipodi.sourceforge.net/DTD/sodipodi-0.dtd"
   xmlns:inkscape="http://www.inkscape.org/namespaces/inkscape"
   version="1.1"
   id="Layer_1"
   x="0px"
   y="0px"
   width="1200px"
   height="1200px"
   viewBox="0 0 1200 1200"
   enable-background="new 0 0 1200 1200"
   xml:space="preserve"
   inkscape:version="0.92.3 (2405546, 2018-03-11)"
   sodipodi:docname="iRaspbianXfce-dark-new.svg"><metadata
     id="metadata3379"><rdf:RDF><cc:Work
         rdf:about=""><dc:format>image/svg+xml</dc:format><dc:type
           rdf:resource="http://purl.org/dc/dcmitype/StillImage" /><dc:title></dc:title></cc:Work></rdf:RDF></metadata><defs
     id="defs3377" /><sodipodi:namedview
     pagecolor="#ffffff"
     bordercolor="#666666"
     borderopacity="1"
     objecttolerance="10"
     gridtolerance="10"
     guidetolerance="10"
     inkscape:pageopacity="0"
     inkscape:pageshadow="2"
     inkscape:window-width="1920"
     inkscape:window-height="1017"
     id="namedview3375"
     showgrid="false"
     inkscape:zoom="0.34"
     inkscape:cx="1169.6633"
     inkscape:cy="301.77782"
     inkscape:window-x="-8"
     inkscape:window-y="-8"
     inkscape:window-maximized="1"
     inkscape:current-layer="Layer_1" /><path
     style="fill:#f1f1f1;fill-opacity:1;stroke-width:3.77352214"
     d="m 1004.7503,37.332031 c -37.85717,0.01274 -81.92462,4.065491 -131.69132,12.25586 -276.20423,45.45642 -555.55033,166.400439 -728.10937,315.238279 -41.512,35.80554 -85.689794,86.34287 -98.962894,113.20703 -14.9196,30.19667 -14.425701,58.2495 1.375,77.94922 14.732099,18.36726 40.494896,32.55557 78.933594,43.4707 43.01194,12.21429 140.02473,12.12729 198.11133,-0.17773 75.0715,-15.90308 154.8137,-47.15884 220.75,-86.52539 33.2448,-19.84847 125.25046,-90.94903 118.03906,-91.21875 -1.4926,-0.0558 -28.35616,9.20683 -59.69726,20.58398 -66.8556,24.26936 -138.29705,44.53393 -188.52735,53.47461 -37.9326,6.75175 -144.19278,9.38361 -163.30078,4.04493 -5.7598,-1.60921 -17.2212,-9.02372 -25.4707,-16.47657 -12.9643,-11.71252 -15,-15.70664 -15,-29.44531 0,-20.94683 14.70541,-42.99253 51.7539,-77.5918 C 372.22682,274.0719 558.03606,178.4055 713.60977,144.0957 c 15.67309,-3.45651 54.95714,-7.06616 90.18164,-8.28711 71.52179,-2.47906 91.79298,1.26772 122.9375,22.73047 26.54094,18.29027 36.79296,40.05467 36.79296,78.10352 0,26.57137 -1.43772,32.49297 -14.13086,58.17578 -35.94849,72.73686 -145.32035,158.45888 -300.46289,235.49609 -121.7653,60.46347 -194.87961,86.32679 -301.01171,106.47852 l -46.29883,8.79101 21.77148,12.15821 c 47.8757,26.73663 64.38908,38.5684 96.04688,68.8164 41.8803,40.01534 53.14775,57.80939 66.12695,104.43164 9.8921,35.53271 10.46991,41.91708 10.50391,116.03907 0.0238,53.1586 -0.0221,67.7176 -1.88282,77.5898 -1.578,12.5915 -2.57707,17.1906 -10.04297,30.2696 -7.3365,11.4442 -38.22511,47.7225 -75.63671,62.9277 -23.6079,9.5949 -22.68173,11.3228 8.91797,16.625 63.23409,10.6101 170.46048,-8.8559 242.55078,-44.0332 31.33695,-15.2912 41.6823,-23.0457 78.04492,-58.4922 24.84258,-24.2167 44.70084,-47.03257 48.74804,-56.0078 5.74297,-12.73553 11.49768,-17.57311 36.17969,-30.41406 32.2103,-16.75769 70.68563,-49.72858 92.14844,-78.9668 8.20999,-11.18422 16.9775,-30.29684 22.50586,-47.29882 A 210.73677,210.73677 0 0 1 847.04922,646.20898 210.73677,210.73677 0 0 1 1057.7855,435.4707 a 210.73677,210.73677 0 0 1 20.3046,1.01563 c 11.0197,-34.84306 20.0211,-77.02714 25.5215,-120.71485 3.5276,-28.01843 8.8925,-55.18835 11.9199,-60.37695 39.4003,-67.52402 55.9863,-121.08638 46.8946,-151.43164 -13.1903,-44.025149 -68.0139,-66.661034 -157.6758,-66.630859 z"
     id="path1935"
     inkscape:connector-curvature="0" /></svg>