<?xml version="1.0" encoding="UTF-8" standalone="no"?>
<!-- Created with Inkscape (http://www.inkscape.org/) -->

<svg
   xmlns:dc="http://purl.org/dc/elements/1.1/"
   xmlns:cc="http://creativecommons.org/ns#"
   xmlns:rdf="http://www.w3.org/1999/02/22-rdf-syntax-ns#"
   xmlns:svg="http://www.w3.org/2000/svg"
   xmlns="http://www.w3.org/2000/svg"
   xmlns:sodipodi="http://sodipodi.sourceforge.net/DTD/sodipodi-0.dtd"
   xmlns:inkscape="http://www.inkscape.org/namespaces/inkscape"
   version="1.1"
   id="svg4461"
   width="16"
   height="16"
   viewBox="0 0 16 16"
   sodipodi:docname="system-lock-screen.svg"
   inkscape:version="0.92.5 (2060ec1f9f, 2020-04-08)">
  <metadata
     id="metadata4467">
    <rdf:RDF>
      <cc:Work
         rdf:about="">
        <dc:format>image/svg+xml</dc:format>
        <dc:type
           rdf:resource="http://purl.org/dc/dcmitype/StillImage" />
        <dc:title />
      </cc:Work>
    </rdf:RDF>
  </metadata>
  <defs
     id="defs4465" />
  <sodipodi:namedview
     pagecolor="#ffffff"
     bordercolor="#666666"
     borderopacity="1"
     objecttolerance="10"
     gridtolerance="10"
     guidetolerance="10"
     inkscape:pageopacity="0"
     inkscape:pageshadow="2"
     inkscape:window-width="1920"
     inkscape:window-height="988"
     id="namedview4463"
     showgrid="false"
     inkscape:zoom="22.672702"
     inkscape:cx="2.8147514"
     inkscape:cy="9.8583978"
     inkscape:window-x="0"
     inkscape:window-y="0"
     inkscape:window-maximized="1"
     inkscape:current-layer="svg4461" />
  <path
     id="path5027"
     style="opacity:1;fill:#ffffff;fill-opacity:1;stroke:none;stroke-width:1.19690323;stroke-miterlimit:4;stroke-dasharray:none;stroke-opacity:0.50251255"
     d="M 9.0416037,10.63294 A 1.0395508,1.0395508 0 0 1 8.002052,11.67249 1.0395508,1.0395508 0 0 1 6.9625021,10.63294 1.0395508,1.0395508 0 0 1 8.002052,9.593389 1.0395508,1.0395508 0 0 1 9.0416037,10.63294 Z M 3.8377475,6.2525278 c -0.5907509,0 -1.0852195,0.4961539 -1.0852195,1.0869049 V 13.91478 C 2.752528,14.505531 3.2469966,15 3.8377475,15 h 8.3245065 c 0.59075,0 1.085218,-0.494469 1.085218,-1.08522 V 7.3394327 c 0,-0.590751 -0.494468,-1.0869049 -1.085218,-1.0869049 z M 3.9843529,7.486038 h 8.0312951 v 6.282138 H 3.9843529 Z M 7.9915747,1 C 6.0648982,1 4.4949452,2.5699523 4.4949452,4.4966297 v 2.33895 H 5.7284546 V 4.4966296 c 0,-1.2649676 0.9981528,-2.2631198 2.2631201,-2.2631198 1.2649674,0 2.2648053,0.9981522 2.2648053,2.2631198 v 2.3389501 h 1.231825 V 4.4966296 C 11.488205,2.5699524 9.9182521,1 7.9915747,1 Z"
     inkscape:connector-curvature="0" />
</svg>
