<?xml version="1.0" encoding="UTF-8" standalone="no"?>
<!-- Created with Inkscape (http://www.inkscape.org/) -->

<svg
   xmlns:dc="http://purl.org/dc/elements/1.1/"
   xmlns:cc="http://creativecommons.org/ns#"
   xmlns:rdf="http://www.w3.org/1999/02/22-rdf-syntax-ns#"
   xmlns:svg="http://www.w3.org/2000/svg"
   xmlns="http://www.w3.org/2000/svg"
   xmlns:xlink="http://www.w3.org/1999/xlink"
   xmlns:sodipodi="http://sodipodi.sourceforge.net/DTD/sodipodi-0.dtd"
   xmlns:inkscape="http://www.inkscape.org/namespaces/inkscape"
   version="1.1"
   id="svg815"
   width="48"
   height="48"
   viewBox="0 0 48 48"
   sodipodi:docname="preferences-desktop.svg"
   inkscape:export-filename="C:\Users\MattSisterman\Desktop\Settings-new.png"
   inkscape:export-xdpi="72"
   inkscape:export-ydpi="72"
   inkscape:version="0.92.5 (2060ec1f9f, 2020-04-08)">
  <metadata
     id="metadata821">
    <rdf:RDF>
      <cc:Work
         rdf:about="">
        <dc:format>image/svg+xml</dc:format>
        <dc:type
           rdf:resource="http://purl.org/dc/dcmitype/StillImage" />
        <dc:title></dc:title>
      </cc:Work>
    </rdf:RDF>
  </metadata>
  <defs
     id="defs819">
    <linearGradient
       inkscape:collect="always"
       id="linearGradient851">
      <stop
         style="stop-color:#fefefe;stop-opacity:1"
         offset="0"
         id="stop847" />
      <stop
         style="stop-color:#cdcdcd;stop-opacity:1"
         offset="1"
         id="stop849" />
    </linearGradient>
    <linearGradient
       inkscape:collect="always"
       id="linearGradient841">
      <stop
         style="stop-color:#114a8b;stop-opacity:1"
         offset="0"
         id="stop837" />
      <stop
         style="stop-color:#173b74;stop-opacity:1"
         offset="1"
         id="stop839" />
    </linearGradient>
    <linearGradient
       inkscape:collect="always"
       id="linearGradient831">
      <stop
         style="stop-color:#8b9299;stop-opacity:1"
         offset="0"
         id="stop827" />
      <stop
         style="stop-color:#616f7a;stop-opacity:1"
         offset="1"
         id="stop829" />
    </linearGradient>
    <linearGradient
       inkscape:collect="always"
       xlink:href="#linearGradient831"
       id="linearGradient833"
       x1="350.94046"
       y1="20.079134"
       x2="484.25861"
       y2="238.35495"
       gradientUnits="userSpaceOnUse"
       gradientTransform="translate(-289.48447,-1.2475353)" />
    <linearGradient
       inkscape:collect="always"
       xlink:href="#linearGradient841"
       id="linearGradient843"
       x1="201.57895"
       y1="117.05264"
       x2="299.47369"
       y2="199.94737"
       gradientUnits="userSpaceOnUse"
       gradientTransform="translate(-121.41454,-32.686274)" />
    <linearGradient
       inkscape:collect="always"
       xlink:href="#linearGradient851"
       id="linearGradient853"
       x1="201.83487"
       y1="120.90826"
       x2="265.36697"
       y2="180.54129"
       gradientUnits="userSpaceOnUse"
       gradientTransform="translate(-105.37094,-23.475936)" />
  </defs>
  <sodipodi:namedview
     pagecolor="#ffffff"
     bordercolor="#666666"
     borderopacity="1"
     objecttolerance="10"
     gridtolerance="10"
     guidetolerance="10"
     inkscape:pageopacity="0"
     inkscape:pageshadow="2"
     inkscape:window-width="1920"
     inkscape:window-height="1000"
     id="namedview817"
     showgrid="false"
     inkscape:zoom="6.59"
     inkscape:cx="-34.346531"
     inkscape:cy="29.996965"
     inkscape:window-x="0"
     inkscape:window-y="0"
     inkscape:window-maximized="1"
     inkscape:current-layer="svg815" />
  <g
     id="g858"
     transform="matrix(0.18273838,0,0,0.18273838,0.60948717,0.60948743)">
    <path
       inkscape:connector-curvature="0"
       id="path825"
       d="m 77.621624,245.34689 c -8.860462,-3.83427 -20.762322,-10.92154 -28.051212,-16.70382 -6.62133,-5.2527 -6.72863,-6.13917 -2.0713,-17.11109 2.436,-5.73881 2.67175,-7.339 2.36578,-16.05779 -0.30943,-8.81745 -0.67395,-10.35931 -4.07455,-17.23456 -3.96092,-8.00809 -9.21615,-13.66978 -16.82838,-18.12996 -5.07123,-2.97136 -14.64834,-5.70369 -19.9920103,-5.70369 -2.20151,0 -4.26384,-0.69496 -5.22979,-1.76231 -2.27257,-2.51116 -3.71050007,-12.89156 -3.63454007,-26.23769 0.12488,-21.9437 1.73940007,-26 10.34872037,-26 5.80217,0 14.16671,-2.602617 19.74417,-6.143377 18.74511,-11.900037 25.04179,-35.833082 14.74019,-56.025896 -2.68406,-5.261198 -1.53881,-7.339168 7.71813,-14.003897 8.26285,-5.949011 26.667982,-15.3971273 31.995452,-16.4245923 2.76872,-0.533981 3.45655,-0.162556 6,3.2399673 5.52751,7.394487 12.590896,13.564946 18.916236,16.524931 19.47814,9.114918 41.23149,3.101391 53.55041,-14.803554 1.60074,-2.32659 3.73443,-4.4916923 4.74155,-4.8113383 6.0838,-1.930924 42.19456,18.7346703 43.78088,25.0550803 0.4145,1.651493 -0.33229,4.536234 -2.24778,8.682917 -2.61014,5.650438 -2.86851,7.204759 -2.86851,17.256418 0,10.740483 0.10351,11.256241 3.73472,18.608555 3.96143,8.020936 9.20673,13.675399 16.82838,18.141099 5.07123,2.97136 14.64834,5.703687 19.99201,5.703687 2.3043,0 4.26591,0.69724 5.35865,1.9047 2.59468,2.8671 3.85849,14.72719 3.34624,31.40247 -0.58114,18.91786 -1.12172,19.88961 -11.59229,20.83854 -13.271,1.20274 -26.49452,9.68944 -32.61262,20.93041 -7.02531,12.9078 -7.30411,25.79865 -0.86845,40.15436 2.41474,5.38645 2.47256,5.8776 0.96319,8.18119 -3.81222,5.81819 -34.91551,23.52824 -41.39983,23.57285 -2.44121,0.0168 -3.60795,-1.06335 -8.77975,-8.12811 -4.08373,-5.57844 -13.76695,-12.2731 -20.75249,-14.34759 -7.14708,-2.12245 -19.14284,-1.94295 -25.91736,0.38783 -9.55127,3.28612 -12.50367,5.63199 -23.935236,19.01804 -3.23799,3.7916 -4.56128,3.79422 -13.26861,0.0262 z m 70.801036,-82.35377 c 11.42779,-6.71838 13.44416,-8.71049 17.80139,-17.58714 2.69464,-5.48957 3.25433,-7.89905 3.60045,-15.5 0.63963,-14.0464 -2.95723,-23.51764 -12.54815,-33.041767 -5.56465,-5.5259 -12.81364,-9.26505 -21.47563,-11.077492 -20.33072,-4.254019 -41.315556,7.781282 -47.883826,27.462509 -1.7362,5.20235 -2.04418,8.08011 -1.71236,16 0.48967,11.68721 3.17756,18.40925 10.50058,26.26049 9.579436,10.2704 18.694936,14.04531 32.819956,13.5914 8.96942,-0.28824 9.03364,-0.30899 18.89759,-6.108 z"
       style="fill:url(#linearGradient833);fill-opacity:1" />
    <circle
       r="64.452858"
       cy="128"
       cx="128"
       id="path835"
       style="opacity:1;fill:url(#linearGradient843);fill-opacity:1;stroke:none;stroke-width:1.03814828;stroke-opacity:1" />
    <circle
       r="43.791565"
       cy="128"
       cx="128"
       id="path845"
       style="opacity:1;fill:url(#linearGradient853);fill-opacity:1;stroke:none;stroke-width:0.84888262;stroke-opacity:1" />
  </g>
</svg>
