/* XPM */
static char *_625203796236[] = {
/* columns rows colors chars-per-pixel */
"45 32 4 1 ",
"  c gray8",
". c #FF4949",
"X c white",
"o c None",
/* pixels */
"                                         oooo",
"...........................................oo",
"............................................o",
"............................................o",
".............................................",
".............................................",
".............................................",
".............................................",
".............................................",
".............................................",
"..................X........X.................",
"...................X......X..................",
"....................X....X...................",
".....................X..X....................",
"......................XX.....................",
"......................XX.....................",
".....................X..X....................",
"....................X....X...................",
"...................X......X..................",
"..................X........X.................",
".............................................",
".............................................",
".............................................",
".............................................",
".............................................",
".............................................",
".............................................",
".............................................",
".............................................",
".............................................",
".............................................",
"............................................."
};
