/* XPM */
static char *_625203816083[] = {
/* columns rows colors chars-per-pixel */
"5 32 2 1 ",
"  c gray8",
". c None",
/* pixels */
" ....",
"   ..",
"    .",
"    .",
"     ",
"     ",
"     ",
"     ",
"     ",
"     ",
"     ",
"     ",
"     ",
"     ",
"     ",
"     ",
"     ",
"     ",
"     ",
"     ",
"     ",
"     ",
"     ",
"     ",
"     ",
"     ",
"     ",
"     ",
"     ",
"     ",
"     ",
"     "
};
