<?xml version="1.0" encoding="UTF-8" standalone="no"?>
<!-- Designed by Vexels.com - 2016 All Rights Reserved - https://vexels.com/terms-and-conditions/  -->

<svg
   xmlns:dc="http://purl.org/dc/elements/1.1/"
   xmlns:cc="http://creativecommons.org/ns#"
   xmlns:rdf="http://www.w3.org/1999/02/22-rdf-syntax-ns#"
   xmlns:svg="http://www.w3.org/2000/svg"
   xmlns="http://www.w3.org/2000/svg"
   xmlns:sodipodi="http://sodipodi.sourceforge.net/DTD/sodipodi-0.dtd"
   xmlns:inkscape="http://www.inkscape.org/namespaces/inkscape"
   version="1.1"
   id="Layer_1"
   x="0px"
   y="0px"
   width="1200px"
   height="1200px"
   viewBox="0 0 1200 1200"
   enable-background="new 0 0 1200 1200"
   xml:space="preserve"
   inkscape:version="0.92.3 (2405546, 2018-03-11)"
   sodipodi:docname="iRaspbianXfce-new.svg"><metadata
     id="metadata3379"><rdf:RDF><cc:Work
         rdf:about=""><dc:format>image/svg+xml</dc:format><dc:type
           rdf:resource="http://purl.org/dc/dcmitype/StillImage" /><dc:title></dc:title></cc:Work></rdf:RDF></metadata><defs
     id="defs3377" /><sodipodi:namedview
     pagecolor="#ffffff"
     bordercolor="#666666"
     borderopacity="1"
     objecttolerance="10"
     gridtolerance="10"
     guidetolerance="10"
     inkscape:pageopacity="0"
     inkscape:pageshadow="2"
     inkscape:window-width="1920"
     inkscape:window-height="1017"
     id="namedview3375"
     showgrid="false"
     inkscape:zoom="0.34"
     inkscape:cx="1169.6633"
     inkscape:cy="301.77782"
     inkscape:window-x="-8"
     inkscape:window-y="-8"
     inkscape:window-maximized="1"
     inkscape:current-layer="Layer_1" /><path
     style="fill:#333333;fill-opacity:1;stroke-width:3.77352214"
     d="M 1004.75 37.332031 C 966.89274 37.344772 922.82529 41.397522 873.05859 49.587891 C 596.85436 95.044311 317.50826 215.98833 144.94922 364.82617 C 103.43722 400.63171 59.259428 451.16904 45.986328 478.0332 C 31.066728 508.22987 31.560627 536.2827 47.361328 555.98242 C 62.093427 574.34968 87.856224 588.53799 126.29492 599.45312 C 169.30686 611.66741 266.31965 611.58041 324.40625 599.27539 C 399.47775 583.37231 479.21995 552.11655 545.15625 512.75 C 578.40105 492.90153 670.40671 421.80097 663.19531 421.53125 C 661.70271 421.47544 634.83915 430.73808 603.49805 442.11523 C 536.64245 466.38459 465.201 486.64916 414.9707 495.58984 C 377.0381 502.34159 270.77792 504.97345 251.66992 499.63477 C 245.91012 498.02556 234.44872 490.61105 226.19922 483.1582 C 213.23492 471.44568 211.19922 467.45156 211.19922 453.71289 C 211.19922 432.76606 225.90463 410.72036 262.95312 376.12109 C 372.22643 274.0719 558.03567 178.4055 713.60938 144.0957 C 729.28247 140.63919 768.56652 137.02954 803.79102 135.80859 C 875.31281 133.32953 895.584 137.07631 926.72852 158.53906 C 953.26946 176.82933 963.52148 198.59373 963.52148 236.64258 C 963.52148 263.21395 962.08376 269.13555 949.39062 294.81836 C 913.44213 367.55522 804.07027 453.27724 648.92773 530.31445 C 527.16243 590.77792 454.04812 616.64124 347.91602 636.79297 L 301.61719 645.58398 L 323.38867 657.74219 C 371.26437 684.47882 387.77775 696.31059 419.43555 726.55859 C 461.31585 766.57393 472.5833 784.36798 485.5625 830.99023 C 495.4546 866.52294 496.03241 872.90731 496.06641 947.0293 C 496.09021 1000.1879 496.04429 1014.7469 494.18359 1024.6191 C 492.60559 1037.2106 491.60652 1041.8097 484.14062 1054.8887 C 476.80412 1066.3329 445.91551 1102.6112 408.50391 1117.8164 C 384.89601 1127.4113 385.82218 1129.1392 417.42188 1134.4414 C 480.65597 1145.0515 587.88236 1125.5855 659.97266 1090.4082 C 691.30961 1075.117 701.65496 1067.3625 738.01758 1031.916 C 762.86016 1007.6993 782.71842 984.88343 786.76562 975.9082 C 792.50859 963.17267 798.2633 958.33509 822.94531 945.49414 C 855.15561 928.73645 893.63094 895.76556 915.09375 866.52734 C 923.30374 855.34312 932.07125 836.2305 937.59961 819.22852 A 210.73677 210.73677 0 0 1 847.04883 646.20898 A 210.73677 210.73677 0 0 1 1057.7852 435.4707 A 210.73677 210.73677 0 0 1 1078.0898 436.48633 C 1089.1095 401.64327 1098.1109 359.45919 1103.6113 315.77148 C 1107.1389 287.75305 1112.5038 260.58313 1115.5312 255.39453 C 1154.9315 187.87051 1171.5175 134.30815 1162.4258 103.96289 C 1149.2355 59.937741 1094.4119 37.301856 1004.75 37.332031 z "
     id="path1935" /></svg>