<?xml version="1.0" encoding="UTF-8" standalone="no"?>
<!-- Created with Inkscape (http://www.inkscape.org/) -->

<svg
   xmlns:dc="http://purl.org/dc/elements/1.1/"
   xmlns:cc="http://creativecommons.org/ns#"
   xmlns:rdf="http://www.w3.org/1999/02/22-rdf-syntax-ns#"
   xmlns:svg="http://www.w3.org/2000/svg"
   xmlns="http://www.w3.org/2000/svg"
   xmlns:sodipodi="http://sodipodi.sourceforge.net/DTD/sodipodi-0.dtd"
   xmlns:inkscape="http://www.inkscape.org/namespaces/inkscape"
   version="1.1"
   id="svg815"
   width="48"
   height="48"
   viewBox="0 0 48 48"
   sodipodi:docname="org.gnome.Software.svg"
   inkscape:version="0.92.5 (2060ec1f9f, 2020-04-08)">
  <metadata
     id="metadata821">
    <rdf:RDF>
      <cc:Work
         rdf:about="">
        <dc:format>image/svg+xml</dc:format>
        <dc:type
           rdf:resource="http://purl.org/dc/dcmitype/StillImage" />
        <dc:title></dc:title>
      </cc:Work>
    </rdf:RDF>
  </metadata>
  <defs
     id="defs819" />
  <sodipodi:namedview
     pagecolor="#ffffff"
     bordercolor="#666666"
     borderopacity="1"
     objecttolerance="10"
     gridtolerance="10"
     guidetolerance="10"
     inkscape:pageopacity="0"
     inkscape:pageshadow="2"
     inkscape:window-width="1600"
     inkscape:window-height="820"
     id="namedview817"
     showgrid="false"
     showguides="true"
     inkscape:guide-bbox="true"
     inkscape:zoom="6.64"
     inkscape:cx="10.642757"
     inkscape:cy="27.622054"
     inkscape:window-x="0"
     inkscape:window-y="0"
     inkscape:window-maximized="1"
     inkscape:current-layer="svg815"
     inkscape:snap-global="false" />
  <rect
     style="opacity:1;fill:#a2a2a2;fill-opacity:1;stroke:none;stroke-width:1.31727791;stroke-opacity:1"
     id="rect867"
     width="41.011234"
     height="1.2212994"
     x="3.4824178"
     y="13.05941" />
  <rect
     style="opacity:1;fill:#cccccc;fill-opacity:1;stroke:none;stroke-width:1.77265513;stroke-opacity:1"
     id="rect865"
     width="40.986908"
     height="3.9287884"
     x="3.4866097"
     y="13.921979" />
  <rect
     style="opacity:0.3;fill:#ffffff;fill-opacity:1;stroke:none;stroke-width:0.96456391;stroke-opacity:1"
     id="rect913"
     width="1.8709896"
     height="12.259906"
     x="14.441968"
     y="5.1907477" />
  <rect
     style="opacity:0.3;fill:#ffffff;fill-opacity:1;stroke:none;stroke-width:0.96456391;stroke-opacity:1"
     id="rect913-1"
     width="1.8709896"
     height="12.259906"
     x="31.674765"
     y="5.2646031" />
  <rect
     style="opacity:1;fill:#646464;fill-opacity:1;stroke:none;stroke-width:1.05254221;stroke-opacity:1"
     id="rect873"
     width="17.417179"
     height="1.3489386"
     x="15.294824"
     y="5.4342389" />
  <path
     style="opacity:1;fill:#cccccc;fill-opacity:1;stroke:none;stroke-width:0.74890381;stroke-opacity:1"
     d="m 15.500901,3.3456778 h 17 L 32.679437,5.886358 H 15.28269 Z"
     id="rect871"
     inkscape:connector-curvature="0"
     sodipodi:nodetypes="ccccc" />
  <path
     style="fill:#ffffff"
     d="M 4.1880828,43.944415 3.5009008,43.257233 V 29.923899 16.590566 H 8.0009011 12.500901 V 11.213011 5.8354568 l 1.5,-1.2448896 1.5,-1.2448894 v 6.6224444 6.6224438 h 8.5 8.5 V 9.9681222 3.3456778 l 1.5,1.2448894 1.5,1.2448896 v 5.3775542 5.377555 h 4.528219 4.450772 l 0.03769,13.977559 -0.02706,12.683127 -1.413582,1.40137 -18.63886,0.0017 -19.5628192,-0.02274 z"
     id="path833"
     inkscape:connector-curvature="0"
     sodipodi:nodetypes="cccccccccccccccccccccccccccc" />
  <path
     id="path920"
     d="M 23.999999,22.499134 A 8.0000008,8.0000008 0 0 0 16,30.499135 8.0000008,8.0000008 0 0 0 23.999999,38.499136 8.0000008,8.0000008 0 0 0 32,30.499135 8.0000008,8.0000008 0 0 0 23.999999,22.499134 Z m -3.2,4.000001 a 0.80000008,0.80000008 0 0 1 0.8,0.8 0.80000008,0.80000008 0 0 1 -0.8,0.8 0.80000008,0.80000008 0 0 1 -0.8,-0.8 0.80000008,0.80000008 0 0 1 0.8,-0.8 z m 3.2,0 a 0.80000008,0.80000008 0 0 1 0.8,0.8 0.80000008,0.80000008 0 0 1 -0.8,0.8 0.80000008,0.80000008 0 0 1 -0.8,-0.8 0.80000008,0.80000008 0 0 1 0.8,-0.8 z m 3.200001,0 a 0.80000008,0.80000008 0 0 1 0.8,0.8 0.80000008,0.80000008 0 0 1 -0.8,0.8 0.80000008,0.80000008 0 0 1 -0.800001,-0.8 0.80000008,0.80000008 0 0 1 0.800001,-0.8 z m -6.400001,3.2 a 0.80000008,0.80000008 0 0 1 0.8,0.8 0.80000008,0.80000008 0 0 1 -0.8,0.8 0.80000008,0.80000008 0 0 1 -0.8,-0.8 0.80000008,0.80000008 0 0 1 0.8,-0.8 z m 3.2,0 a 0.80000008,0.80000008 0 0 1 0.8,0.8 0.80000008,0.80000008 0 0 1 -0.8,0.8 0.80000008,0.80000008 0 0 1 -0.8,-0.8 0.80000008,0.80000008 0 0 1 0.8,-0.8 z m 3.200001,0 a 0.80000008,0.80000008 0 0 1 0.8,0.8 0.80000008,0.80000008 0 0 1 -0.8,0.8 0.80000008,0.80000008 0 0 1 -0.800001,-0.8 0.80000008,0.80000008 0 0 1 0.800001,-0.8 z m -6.400001,3.2 a 0.80000008,0.80000008 0 0 1 0.8,0.800001 0.80000008,0.80000008 0 0 1 -0.8,0.8 0.80000008,0.80000008 0 0 1 -0.8,-0.8 0.80000008,0.80000008 0 0 1 0.8,-0.800001 z m 3.2,0 a 0.80000008,0.80000008 0 0 1 0.8,0.800001 0.80000008,0.80000008 0 0 1 -0.8,0.8 0.80000008,0.80000008 0 0 1 -0.8,-0.8 0.80000008,0.80000008 0 0 1 0.8,-0.800001 z m 3.200001,0 a 0.80000008,0.80000008 0 0 1 0.8,0.800001 0.80000008,0.80000008 0 0 1 -0.8,0.8 0.80000008,0.80000008 0 0 1 -0.800001,-0.8 A 0.80000008,0.80000008 0 0 1 27.2,32.899135 Z"
     style="fill:#3584e4;stroke-width:0.40000004;paint-order:normal;enable-background:new"
     inkscape:connector-curvature="0" />
</svg>
