<?xml version="1.0" encoding="UTF-8" standalone="no"?>
<svg
   xmlns:dc="http://purl.org/dc/elements/1.1/"
   xmlns:cc="http://creativecommons.org/ns#"
   xmlns:rdf="http://www.w3.org/1999/02/22-rdf-syntax-ns#"
   xmlns:svg="http://www.w3.org/2000/svg"
   xmlns="http://www.w3.org/2000/svg"
   xmlns:sodipodi="http://sodipodi.sourceforge.net/DTD/sodipodi-0.dtd"
   xmlns:inkscape="http://www.inkscape.org/namespaces/inkscape"
   height="48"
   width="48"
   id="svg3393"
   version="1.1"
   inkscape:version="0.92.5 (2060ec1f9f, 2020-04-08)"
   sodipodi:docname="whiskermenu.svg">
  <metadata
     id="metadata3410">
    <rdf:RDF>
      <cc:Work
         rdf:about="">
        <dc:format>image/svg+xml</dc:format>
        <dc:type
           rdf:resource="http://purl.org/dc/dcmitype/StillImage" />
        <dc:title></dc:title>
      </cc:Work>
    </rdf:RDF>
  </metadata>
  <defs
     id="defs3408" />
  <sodipodi:namedview
     pagecolor="#ffffff"
     bordercolor="#666666"
     borderopacity="1"
     objecttolerance="10"
     gridtolerance="10"
     guidetolerance="10"
     inkscape:pageopacity="0"
     inkscape:pageshadow="2"
     inkscape:window-width="1280"
     inkscape:window-height="640"
     id="namedview3406"
     showgrid="false"
     inkscape:zoom="9.3396602"
     inkscape:cx="16.157133"
     inkscape:cy="24.552543"
     inkscape:window-x="0"
     inkscape:window-y="0"
     inkscape:window-maximized="1"
     inkscape:current-layer="g3400" />
  <linearGradient
     id="a"
     gradientTransform="matrix(1.0448887 0 0 .97906893 -12.072224 17.800175)"
     gradientUnits="userSpaceOnUse"
     x1="265.45438"
     x2="265.65161"
     y1="913.03589"
     y2="791.88153">
    <stop
       offset="0"
       stop-color="#197ff1"
       id="stop3396" />
    <stop
       offset="1"
       stop-color="#21c6fb"
       id="stop3398" />
  </linearGradient>
  <g
     transform="matrix(0.37808933,0,0,0.37808933,-77.682283,-298.41465)"
     id="g3400">
    <path
       style="opacity:1;fill:#ffffff;fill-opacity:1;stroke:none;stroke-width:3.5265038;stroke-opacity:1"
       d="m 311.24835,810.42925 -84.62231,11.9846 0.0275,60.94928 84.5948,11.7022 z m -21.26233,14.10601 c 1.60337,0.0229 2.96386,0.15005 4.16017,0.48903 1.70965,0.48444 2.69197,1.11041 3.24409,2.05253 0.91106,1.55456 0.67246,3.46771 -0.81273,6.44689 -1.22529,2.45783 -2.66448,4.33704 -5.41375,7.08056 -6.74782,6.73374 -15.60613,11.04202 -26.70361,12.99021 -2.49176,0.43742 -2.7912,0.47208 -2.27295,0.24794 0.18099,-0.0783 1.58036,-0.63193 3.10636,-1.23289 6.46824,-2.54732 12.45576,-5.88231 16.70268,-9.2984 2.74324,-2.20658 4.73878,-4.68286 5.35863,-6.65352 0.39643,-1.26035 0.29904,-3.33855 -0.19975,-4.30482 -0.67565,-1.30884 -2.30914,-2.35596 -4.2497,-2.72064 -1.5438,-0.29013 -5.86486,-0.0679 -8.1275,0.41326 -8.15427,1.73413 -18.22599,7.0038 -23.62481,12.36342 -2.40866,2.39115 -2.78916,3.75718 -1.41199,5.0418 0.94564,0.88208 1.66797,1.04434 4.71808,1.04006 4.41417,-0.007 9.40068,-1.15555 15.85549,-3.6436 1.03142,-0.39758 1.90655,-0.69012 1.94234,-0.65434 0.13972,0.13972 -3.15466,2.8156 -4.91783,3.99487 -3.59491,2.40441 -7.82091,4.17652 -12.19812,5.11756 -1.79304,0.38548 -3.18856,0.54258 -5.50327,0.62679 -2.0761,-0.0272 -3.69232,-0.20644 -5.13134,-0.58545 -3.68563,-0.97071 -5.23282,-2.94722 -4.28415,-5.46885 0.5304,-1.40981 1.45413,-2.67425 3.33365,-4.58032 2.66935,-2.70702 5.5996,-4.95296 9.7461,-7.44561 7.62946,-4.58641 15.5002,-7.61591 25.91843,-9.98028 0.40722,-0.0924 1.69277,-0.3644 2.82396,-0.54412 1.13116,-0.17972 2.2034,-0.37137 3.26476,-0.50969 1.14266,-0.14887 2.93912,-0.26222 4.67676,-0.28239 z m 4.12573,17.79093 c 0.0935,0 -0.43627,2.20246 -0.75765,3.14768 -0.5297,1.55788 -1.73594,3.81668 -2.78952,5.22778 -1.30571,1.74877 -4.06638,4.36391 -5.90966,5.59281 -5.55828,3.70568 -12.89826,5.45127 -19.09271,4.54588 -2.16282,-0.31612 -4.34034,-1.00709 -6.41245,-2.02498 l -1.89411,-0.92295 3.6987,-0.28928 c 6.33529,-0.48549 10.65795,-1.45255 16.06212,-3.60227 5.86769,-2.33412 10.86845,-5.58332 15.26315,-9.91141 0.98777,-0.9728 1.81144,-1.76324 1.83213,-1.76324 z m -2.81019,12.44609 c 0.17859,0.0219 0.0448,0.50916 -0.25486,1.48085 -0.80746,2.6186 -2.37194,4.90437 -4.5941,6.7224 -3.27702,2.68103 -7.23524,3.98001 -12.50117,4.10507 -1.40265,0.0335 -2.766,0.03 -3.03748,-0.007 -3.98516,-0.54633 -6.27826,-1.51857 -8.14815,-3.45763 -0.49772,-0.51612 -0.76885,-0.88609 -0.59924,-0.82652 2.44977,0.86051 8.71094,1.20143 12.53563,0.68188 3.32565,-0.45176 5.12664,-1.01492 8.21703,-2.56222 2.488,-1.2457 4.6064,-2.75002 6.77749,-4.82139 0.93715,-0.89409 1.42625,-1.33729 1.60484,-1.31555 z m -5.77878,11.55756 c 0.005,0.0804 -0.16899,0.34556 -0.52347,0.8403 -1.23693,1.72651 -2.92352,3.11308 -5.09689,4.19462 -3.8394,1.91061 -7.51172,2.57916 -10.79993,1.96988 -1.53781,-0.28495 -2.90162,-0.81212 -3.7469,-1.45331 -1.22894,-0.93221 -2.1995,-2.7318 -2.06631,-3.84333 l 0.0551,-0.42704 0.52346,0.44081 c 0.69862,0.59 2.67147,1.48017 4.01554,1.81147 3.48088,0.85797 7.45005,0.63056 11.41981,-0.66123 1.39798,-0.45492 4.45683,-1.86853 5.66168,-2.61732 0.3719,-0.23113 0.5526,-0.33527 0.55791,-0.25487 z m -22.28171,6.58465 0.77141,0.59233 c 0.42393,0.3236 1.00595,0.70763 1.288,0.85408 2.18087,1.13244 6.20442,1.32183 10.25579,0.48214 0.56559,-0.1172 1.02723,-0.16963 1.02628,-0.11707 -0.004,0.21812 -1.27707,1.67313 -1.88724,2.15585 -2.47308,1.95648 -6.05731,3.28844 -10.39354,3.85712 -2.08233,0.2731 -3.12586,0.28896 -4.41502,0.0757 -1.64091,-0.2713 -1.89412,-0.33463 -1.89412,-0.48903 0,-0.0864 0.16832,-0.15835 0.37194,-0.15841 0.64767,-1.2e-4 2.39327,-0.93998 3.15456,-1.70127 0.40446,-0.40445 0.91864,-1.09937 1.14336,-1.54284 0.48714,-0.96129 0.82592,-2.68983 0.68188,-3.45763 z"
       id="rect833"
       inkscape:connector-curvature="0" />
  </g>
</svg>
