<?xml version="1.0" encoding="UTF-8" standalone="no"?>
<!-- Created with Inkscape (http://www.inkscape.org/) -->

<svg
   xmlns:dc="http://purl.org/dc/elements/1.1/"
   xmlns:cc="http://creativecommons.org/ns#"
   xmlns:rdf="http://www.w3.org/1999/02/22-rdf-syntax-ns#"
   xmlns:svg="http://www.w3.org/2000/svg"
   xmlns="http://www.w3.org/2000/svg"
   xmlns:xlink="http://www.w3.org/1999/xlink"
   xmlns:sodipodi="http://sodipodi.sourceforge.net/DTD/sodipodi-0.dtd"
   xmlns:inkscape="http://www.inkscape.org/namespaces/inkscape"
   version="1.1"
   id="svg815"
   width="128"
   height="128"
   viewBox="0 0 128 128"
   sodipodi:docname="Twister11.svg"
   inkscape:version="0.92.4 (5da689c313, 2019-01-14)">
  <metadata
     id="metadata821">
    <rdf:RDF>
      <cc:Work
         rdf:about="">
        <dc:format>image/svg+xml</dc:format>
        <dc:type
           rdf:resource="http://purl.org/dc/dcmitype/StillImage" />
        <dc:title></dc:title>
      </cc:Work>
    </rdf:RDF>
  </metadata>
  <defs
     id="defs819">
    <linearGradient
       inkscape:collect="always"
       id="linearGradient1566">
      <stop
         style="stop-color:#80dfff;stop-opacity:1"
         offset="0"
         id="stop1562" />
      <stop
         style="stop-color:#0291f7;stop-opacity:1"
         offset="1"
         id="stop1564" />
    </linearGradient>
    <radialGradient
       inkscape:collect="always"
       xlink:href="#linearGradient1566"
       id="radialGradient1568"
       cx="53.10973"
       cy="2.0207002"
       fx="53.10973"
       fy="2.0207002"
       r="12"
       gradientUnits="userSpaceOnUse"
       gradientTransform="matrix(-4.1155813e-7,7.9999977,-7.999999,-4.115582e-7,32.165615,-408.87772)" />
  </defs>
  <sodipodi:namedview
     pagecolor="#ffffff"
     bordercolor="#666666"
     borderopacity="1"
     objecttolerance="10"
     gridtolerance="10"
     guidetolerance="10"
     inkscape:pageopacity="0"
     inkscape:pageshadow="2"
     inkscape:window-width="1920"
     inkscape:window-height="988"
     id="namedview817"
     showgrid="false"
     inkscape:zoom="4.26"
     inkscape:cx="9.1313209"
     inkscape:cy="79.46757"
     inkscape:window-x="0"
     inkscape:window-y="0"
     inkscape:window-maximized="1"
     inkscape:current-layer="svg815" />
  <path
     style="opacity:1;fill:url(#radialGradient1568);fill-opacity:1;stroke:none;stroke-width:9.9188385;stroke-miterlimit:4;stroke-dasharray:none;stroke-opacity:1"
     d="m 21.968751,16.000001 c -3.306672,0 -5.968752,2.66208 -5.968752,5.968756 v 84.062493 c 0,3.30667 2.66208,5.96875 5.968753,5.96875 H 106.03125 C 109.33792,112 112,109.33792 112,106.03125 V 21.968757 c 0,-3.306676 -2.66208,-5.968756 -5.96875,-5.968756 z M 87.234376,32.85939 c 1.769921,0.02618 3.27319,0.164946 4.59374,0.53904 1.88726,0.534764 2.968668,1.225658 3.578127,2.265644 1.00568,1.716044 0.741011,3.820757 -0.89843,7.109367 -1.352557,2.713135 -2.941727,4.791797 -5.976567,7.820335 -7.44871,7.433105 -17.2186,12.193178 -29.468746,14.343709 -2.750579,0.48288 -3.079894,0.5208 -2.507813,0.2736 0.199811,-0.0864 1.737369,-0.703768 3.421877,-1.367171 7.140083,-2.811884 13.757282,-6.494706 18.445312,-10.265629 3.028181,-2.435782 5.222011,-5.160567 5.90624,-7.335927 0.437621,-1.391258 0.33186,-3.683389 -0.21874,-4.749993 -0.745829,-1.4448 -2.55318,-2.605265 -4.695319,-3.007811 -1.70415,-0.320291 -6.4711,-0.07811 -8.96875,0.45312 -9.001238,1.91424 -20.110703,7.732102 -26.070313,13.648451 -2.658829,2.63952 -3.090541,4.152262 -1.570311,5.570269 1.04386,0.973745 1.84402,1.145411 5.210936,1.140654 4.872668,-0.0087 10.382549,-1.26912 17.507813,-4.015636 1.138555,-0.438851 2.101121,-0.76608 2.14063,-0.726545 0.154254,0.154473 -3.475572,3.112276 -5.42188,4.414036 -3.968304,2.654138 -8.636875,4.609658 -13.468752,5.648465 -1.979275,0.425455 -3.52299,0.602357 -6.078122,0.695302 -2.291747,-0.03055 -4.075558,-0.229964 -5.664061,-0.648436 -4.068441,-1.071535 -5.773772,-3.255535 -4.726564,-6.039055 0.585477,-1.556247 1.59713,-2.958458 3.671873,-5.062516 2.946598,-2.988218 6.188448,-5.459389 10.765628,-8.210923 8.421923,-5.062822 17.109032,-8.405674 28.609373,-11.015652 0.44952,-0.102109 1.86852,-0.411054 3.11719,-0.609338 1.24865,-0.198545 2.42996,-0.401891 3.60156,-0.554705 1.26135,-0.164509 3.24595,-0.290182 5.164069,-0.312437 z m 4.55469,19.632786 c 0.103201,0 -0.48117,2.433164 -0.83594,3.476596 -0.58472,1.719665 -1.915099,4.215753 -3.078129,5.77344 -1.44135,1.930385 -4.48871,4.815316 -6.523431,6.17184 -6.13563,4.090604 -14.240282,6.015054 -21.078131,5.015651 -2.387463,-0.349091 -4.790806,-1.102953 -7.078124,-2.226589 l -2.093751,-1.023448 4.085939,-0.32029 c 6.99333,-0.535899 11.76888,-1.60355 17.734377,-3.976539 6.47716,-2.576552 11.99259,-6.159883 16.84375,-10.937497 1.09037,-1.073848 2.00059,-1.95312 2.02344,-1.95312 z m -3.101569,13.742225 c 0.197109,0.02182 0.0495,0.56016 -0.281229,1.632785 -0.89133,2.89056 -2.617341,5.415011 -5.070311,7.421891 -3.6174,2.959506 -7.98397,4.393179 -13.796881,4.531244 -1.548331,0.03491 -3.059699,0.03491 -3.35937,-0.0087 -4.399126,-0.603491 -6.928067,-1.672058 -8.992189,-3.812509 -0.549412,-0.569717 -0.843473,-0.979811 -0.656252,-0.914051 2.704237,0.949876 9.613988,1.323491 13.835942,0.749978 3.67109,-0.498676 5.65893,-1.120102 9.070311,-2.828116 2.74642,-1.37507 5.079949,-3.033775 7.47656,-5.32032 1.03447,-0.986924 1.57631,-1.477135 1.77344,-1.453135 z m -6.375,12.757789 c 0.006,0.08858 -0.186851,0.383564 -0.578121,0.929673 -1.365409,1.905862 -3.225879,3.431127 -5.625,4.625018 -4.23819,2.109076 -8.299949,2.852247 -11.929691,2.17968 -1.697537,-0.314618 -3.207539,-0.901571 -4.140625,-1.609353 -1.356576,-1.029032 -2.420461,-3.015185 -2.273437,-4.242196 l 0.05468,-0.468786 0.585936,0.492219 c 0.771186,0.651272 2.946009,1.634312 4.429684,1.999985 3.84244,0.947084 8.219473,0.691593 12.601564,-0.734356 1.54317,-0.502168 4.919999,-2.064088 6.25,-2.890648 0.410529,-0.255272 0.619129,-0.370036 0.625,-0.281018 z m -24.601563,7.27344 0.851564,0.648436 c 0.467961,0.357382 1.110528,0.783622 1.421879,0.945295 2.407386,1.250051 6.855942,1.458153 11.32812,0.531273 0.624329,-0.129164 1.13387,-0.190691 1.132811,-0.132655 -0.004,0.240873 -1.41237,1.849964 -2.085932,2.382807 -2.72995,2.159695 -6.689931,3.630066 -11.476565,4.257819 -2.298616,0.301527 -3.451942,0.321163 -4.874998,0.08596 -1.811354,-0.299345 -2.085936,-0.376582 -2.085936,-0.546894 0,-0.09556 0.181483,-0.171928 0.406254,-0.171928 0.714934,-1.3e-4 2.644002,-1.042429 3.484377,-1.882778 0.446466,-0.446487 1.00975,-1.205803 1.25781,-1.695316 0.537726,-1.061149 0.916813,-2.96496 0.757815,-3.812509 z"
     id="rect1401-5"
     inkscape:connector-curvature="0" />
</svg>
