<?xml version="1.0" encoding="UTF-8" standalone="no"?>
<!-- Created with Inkscape (http://www.inkscape.org/) -->

<svg
   xmlns:dc="http://purl.org/dc/elements/1.1/"
   xmlns:cc="http://creativecommons.org/ns#"
   xmlns:rdf="http://www.w3.org/1999/02/22-rdf-syntax-ns#"
   xmlns:svg="http://www.w3.org/2000/svg"
   xmlns="http://www.w3.org/2000/svg"
   xmlns:xlink="http://www.w3.org/1999/xlink"
   xmlns:sodipodi="http://sodipodi.sourceforge.net/DTD/sodipodi-0.dtd"
   xmlns:inkscape="http://www.inkscape.org/namespaces/inkscape"
   version="1.1"
   id="svg815"
   width="48"
   height="48"
   viewBox="0 0 48 48"
   sodipodi:docname="pi-packages-light.svg"
   inkscape:version="0.92.3 (2405546, 2018-03-11)">
  <metadata
     id="metadata821">
    <rdf:RDF>
      <cc:Work
         rdf:about="">
        <dc:format>image/svg+xml</dc:format>
        <dc:type
           rdf:resource="http://purl.org/dc/dcmitype/StillImage" />
        <dc:title></dc:title>
      </cc:Work>
    </rdf:RDF>
  </metadata>
  <defs
     id="defs819">
    <linearGradient
       inkscape:collect="always"
       id="linearGradient1475">
      <stop
         style="stop-color:#0667b9;stop-opacity:1"
         offset="0"
         id="stop1471" />
      <stop
         style="stop-color:#243a5f;stop-opacity:1"
         offset="1"
         id="stop1473" />
    </linearGradient>
    <linearGradient
       inkscape:collect="always"
       xlink:href="#linearGradient1464"
       id="linearGradient1466"
       x1="-181.6129"
       y1="-29.737326"
       x2="-181.45161"
       y2="-21.67281"
       gradientUnits="userSpaceOnUse"
       gradientTransform="matrix(0.42736574,0,0,0.42736574,101.77009,16.139885)" />
    <linearGradient
       inkscape:collect="always"
       id="linearGradient1464">
      <stop
         style="stop-color:#1bb1fb;stop-opacity:1"
         offset="0"
         id="stop1460" />
      <stop
         style="stop-color:#0590f1;stop-opacity:1"
         offset="1"
         id="stop1462" />
    </linearGradient>
    <linearGradient
       gradientTransform="matrix(0.34375827,0,0,0.42736574,36.533571,16.139884)"
       inkscape:collect="always"
       xlink:href="#linearGradient1478"
       id="linearGradient1470-2"
       x1="-202.28175"
       y1="-25.845238"
       x2="-199.20634"
       y2="-25.845238"
       gradientUnits="userSpaceOnUse" />
    <linearGradient
       id="linearGradient1478"
       inkscape:collect="always">
      <stop
         id="stop1472"
         offset="0"
         style="stop-color:#000000;stop-opacity:0.15686275" />
      <stop
         id="stop1476"
         offset="1"
         style="stop-color:#000000;stop-opacity:0" />
    </linearGradient>
    <linearGradient
       inkscape:collect="always"
       xlink:href="#linearGradient1444"
       id="linearGradient1446"
       x1="-158.06451"
       y1="-7.1566811"
       x2="-158.54839"
       y2="-29.737326"
       gradientUnits="userSpaceOnUse"
       gradientTransform="matrix(0.42736574,0,0,0.42736574,101.77009,16.139885)" />
    <linearGradient
       inkscape:collect="always"
       id="linearGradient1444">
      <stop
         style="stop-color:#0094d4;stop-opacity:1"
         offset="0"
         id="stop1440" />
      <stop
         id="stop1448"
         offset="0.32872662"
         style="stop-color:#0aa3dd;stop-opacity:1" />
      <stop
         style="stop-color:#2fd9fe;stop-opacity:1"
         offset="1"
         id="stop1442" />
    </linearGradient>
    <linearGradient
       inkscape:collect="always"
       xlink:href="#linearGradient1478"
       id="linearGradient1470"
       x1="-202.28175"
       y1="-25.845238"
       x2="-199.20634"
       y2="-25.845238"
       gradientUnits="userSpaceOnUse"
       gradientTransform="matrix(0.27408538,0,0,0.42736574,70.7693,16.139885)" />
    <linearGradient
       inkscape:collect="always"
       xlink:href="#linearGradient1434"
       id="linearGradient1436"
       x1="-205.5723"
       y1="-7.3820987"
       x2="-205.72289"
       y2="-29.97246"
       gradientUnits="userSpaceOnUse"
       gradientTransform="matrix(0.42736574,0,0,0.42736574,101.77009,16.139885)" />
    <linearGradient
       inkscape:collect="always"
       id="linearGradient1434">
      <stop
         style="stop-color:#0094d4;stop-opacity:1"
         offset="0"
         id="stop1430" />
      <stop
         id="stop1438"
         offset="0.32285017"
         style="stop-color:#12afe4;stop-opacity:1" />
      <stop
         style="stop-color:#30daff;stop-opacity:1"
         offset="1"
         id="stop1432" />
    </linearGradient>
    <linearGradient
       inkscape:collect="always"
       xlink:href="#linearGradient1475"
       id="linearGradient1477"
       x1="4.5575242"
       y1="9.7444181"
       x2="41.432037"
       y2="42.751942"
       gradientUnits="userSpaceOnUse" />
  </defs>
  <sodipodi:namedview
     pagecolor="#ffffff"
     bordercolor="#666666"
     borderopacity="1"
     objecttolerance="10"
     gridtolerance="10"
     guidetolerance="10"
     inkscape:pageopacity="0"
     inkscape:pageshadow="2"
     inkscape:window-width="1920"
     inkscape:window-height="1017"
     id="namedview817"
     showgrid="false"
     showguides="true"
     inkscape:guide-bbox="true"
     inkscape:zoom="7.2407734"
     inkscape:cx="26.301455"
     inkscape:cy="25.944296"
     inkscape:window-x="-8"
     inkscape:window-y="-8"
     inkscape:window-maximized="1"
     inkscape:current-layer="svg815"
     inkscape:snap-global="false" />
  <rect
     style="opacity:1;fill:url(#linearGradient1466);fill-opacity:1;stroke:none;stroke-width:0.91987455;stroke-miterlimit:4;stroke-dasharray:none;stroke-opacity:1"
     id="rect1415"
     width="17.655359"
     height="3.6076775"
     x="15.335819"
     y="3.3455026" />
  <path
     style="opacity:1;fill:url(#linearGradient1477);fill-opacity:1;stroke:none;stroke-width:1.21326828;stroke-miterlimit:4;stroke-dasharray:none;stroke-opacity:1"
     d="m 5.941041,9.2468299 35.992824,0.0094 c 1.190743,3.111e-4 1.784884,0.5968209 1.783192,1.6428281 l -0.04239,26.235833 c -0.0067,4.165859 -3.353748,7.519611 -7.519611,7.519611 h -24.35251 c -4.165863,0 -7.5223465,-3.353747 -7.5196114,-7.519611 L 4.3001575,10.949036 C 4.3005848,9.9469644 4.9421249,9.2465679 5.9410325,9.2468286 Z"
     id="rect1417"
     inkscape:connector-curvature="0"
     sodipodi:nodetypes="sssssssss" />
  <rect
     style="opacity:1;fill:url(#linearGradient1470-2);fill-opacity:1;stroke:none;stroke-width:0.89094961;stroke-miterlimit:4;stroke-dasharray:none;stroke-opacity:1"
     id="rect1468-6"
     width="1.0459201"
     height="3.6076767"
     x="-32.991177"
     y="3.3455026"
     transform="scale(-1,1)" />
  <path
     style="opacity:1;fill:url(#linearGradient1446);fill-opacity:1;stroke:none;stroke-width:0.89746803;stroke-miterlimit:4;stroke-dasharray:none;stroke-opacity:1"
     d="m 32.481394,3.3455022 -0.02265,7.8999278 c -0.003,1.009489 0.812696,1.82219 1.82219,1.82219 1.009493,0 1.822189,-0.812697 1.822189,-1.82219 V 5.9939005 c -0.220726,-1.5637876 -1.74158,-2.6421318 -3.621741,-2.6484 z"
     id="rect827-1"
     inkscape:connector-curvature="0"
     sodipodi:nodetypes="csssccc" />
  <rect
     style="opacity:1;fill:url(#linearGradient1470);fill-opacity:1;stroke:none;stroke-width:0.79555368;stroke-miterlimit:4;stroke-dasharray:none;stroke-opacity:1"
     id="rect1468"
     width="0.83393317"
     height="3.6076767"
     x="15.335819"
     y="3.3455026" />
  <path
     style="opacity:1;fill:url(#linearGradient1436);fill-opacity:1;stroke:none;stroke-width:0.89746803;stroke-miterlimit:4;stroke-dasharray:none;stroke-opacity:1"
     d="m 15.675659,3.3455039 0.02265,7.8999281 c 0.003,1.009489 -0.812695,1.82219 -1.822189,1.82219 -1.009493,0 -1.822189,-0.812697 -1.822189,-1.82219 V 5.9939022 c 0.220726,-1.5637876 1.741579,-2.6421318 3.621741,-2.6484 z"
     id="rect827"
     inkscape:connector-curvature="0"
     sodipodi:nodetypes="csssccc" />
  <path
     d="m 20.123154,16.099923 c -0.109181,0.0034 -0.226765,0.04372 -0.360111,0.148946 -0.326609,-0.125983 -0.64336,-0.169751 -0.926672,0.08673 -0.437227,-0.05674 -0.579504,0.06035 -0.687227,0.197023 -0.09601,-0.002 -0.718527,-0.09871 -1.003973,0.327117 -0.717406,-0.08487 -0.94411,0.421963 -0.687227,0.89462 -0.146515,0.22682 -0.29833,0.450903 0.04431,0.883308 -0.121209,0.240834 -0.04608,0.50209 0.239445,0.818262 -0.07535,0.338545 0.07276,0.57741 0.338429,0.763586 -0.04969,0.463281 0.424847,0.732663 0.566561,0.828631 0.05441,0.269949 0.167813,0.524675 0.709852,0.665545 0.08939,0.402302 0.415151,0.471774 0.730591,0.556192 -1.042607,0.606028 -1.936699,1.403419 -1.930646,3.359776 l -0.152717,0.27244 c -1.195518,0.727078 -2.271082,3.063882 -0.589186,4.963306 0.109862,0.594529 0.294109,1.021551 0.458151,1.494176 0.245368,1.904419 1.846712,2.796167 2.269074,2.901625 0.618909,0.471443 1.278093,0.918768 2.170091,1.232107 0.840892,0.867266 1.751877,1.197796 2.667836,1.197226 0.01343,-8e-6 0.02711,1.51e-4 0.04054,0 0.91596,5.7e-4 1.826945,-0.32996 2.667836,-1.197226 0.891998,-0.313339 1.551182,-0.760664 2.170091,-1.232107 0.422362,-0.105458 2.023706,-0.997206 2.269074,-2.901625 0.164042,-0.472625 0.348289,-0.899647 0.458152,-1.494176 1.681895,-1.899424 0.606331,-4.236228 -0.589187,-4.963306 l -0.152717,-0.27244 c 0.0061,-1.956357 -0.888039,-2.753748 -1.930646,-3.359776 0.31544,-0.08442 0.641202,-0.15389 0.730591,-0.556192 0.54204,-0.14087 0.655442,-0.395596 0.709852,-0.665545 0.141714,-0.09597 0.616248,-0.36535 0.566562,-0.828631 0.265665,-0.186176 0.41378,-0.425041 0.338428,-0.763586 0.285523,-0.316172 0.360654,-0.577428 0.239446,-0.818262 0.342637,-0.432405 0.190822,-0.656488 0.04431,-0.883308 0.256883,-0.472657 0.03018,-0.979491 -0.687226,-0.89462 -0.285446,-0.425823 -0.907968,-0.329103 -1.003974,-0.327117 -0.107723,-0.136668 -0.25,-0.253759 -0.687227,-0.197023 -0.283312,-0.25648 -0.600062,-0.212712 -0.926672,-0.08673 -0.387915,-0.30611 -0.644723,-0.06073 -0.937985,0.03205 -0.469806,-0.15348 -0.577173,0.05674 -0.807892,0.142347 -0.512081,-0.108239 -0.66775,0.127409 -0.913475,0.376137 l -0.285637,-0.0057 c -0.772576,0.455304 -1.15639,1.382387 -1.292439,1.859001 -0.136113,-0.476688 -0.519056,-1.403777 -1.291497,-1.859001 l -0.285637,0.0057 c -0.245725,-0.248728 -0.401393,-0.484376 -0.913475,-0.376137 -0.230719,-0.08561 -0.338086,-0.295827 -0.807892,-0.142347 -0.192453,-0.06089 -0.369437,-0.187466 -0.577874,-0.180998 z"
     style="fill:#333333;stroke-width:0.03016634"
     id="path373"
     inkscape:connector-curvature="0" />
  <path
     d="m 18.585179,18.102948 c 2.049732,1.056768 3.241279,1.91161 3.894087,2.639689 -0.334314,1.339916 -2.078351,1.401065 -2.716044,1.363476 0.130573,-0.06078 0.239517,-0.13357 0.278149,-0.245425 -0.160017,-0.113722 -0.727398,-0.01198 -1.123504,-0.234518 0.152161,-0.03152 0.223336,-0.06223 0.294511,-0.174525 -0.374235,-0.119359 -0.777345,-0.222218 -1.014426,-0.419951 0.127943,0.0016 0.247399,0.02862 0.414496,-0.08726 -0.335199,-0.180642 -0.692894,-0.323791 -0.970795,-0.59993 0.173313,-0.0042 0.36017,-0.0017 0.414497,-0.06545 -0.306805,-0.190069 -0.565656,-0.40145 -0.779908,-0.632653 0.242537,0.02928 0.344961,0.0041 0.403589,-0.03818 -0.231913,-0.237535 -0.525424,-0.438111 -0.665376,-0.730823 0.180081,0.06207 0.344838,0.08582 0.463581,-0.0055 -0.0788,-0.177784 -0.416458,-0.282647 -0.610837,-0.698099 0.189576,0.01838 0.390642,0.04136 0.430859,0 -0.08816,-0.358635 -0.239143,-0.56019 -0.387228,-0.769001 0.405739,-0.006 1.02046,0.0016 0.992611,-0.03272 l -0.25088,-0.256334 c 0.396314,-0.106705 0.801841,0.01714 1.096235,0.109078 0.132185,-0.104305 -0.0023,-0.236202 -0.163617,-0.370865 0.336806,0.04497 0.64115,0.122396 0.916256,0.229064 0.146981,-0.132712 -0.09544,-0.265423 -0.212703,-0.398135 0.52035,0.09872 0.7408,0.237429 0.959888,0.376319 0.158957,-0.152364 0.0091,-0.281853 -0.09817,-0.414496 0.392333,0.145312 0.594421,0.332902 0.807178,0.51812 0.07213,-0.09735 0.183259,-0.168702 0.04909,-0.403588 0.278561,0.160567 0.488371,0.34978 0.643561,0.561752 0.172351,-0.109744 0.102682,-0.259824 0.103624,-0.398135 0.289496,0.235494 0.473215,0.486099 0.6981,0.730823 0.0453,-0.03299 0.08497,-0.14485 0.119985,-0.321781 0.690671,0.67005 1.666567,2.357748 0.25088,3.026917 -1.204203,-0.993895 -2.643058,-1.716089 -4.237683,-2.257916 z"
     style="fill:#7fba00;fill-opacity:1;stroke-width:0.03016634"
     id="path375"
     inkscape:connector-curvature="0" />
  <path
     d="m 29.461141,18.102948 c -2.049733,1.056768 -3.24128,1.91161 -3.894088,2.639689 0.334314,1.339916 2.078352,1.401065 2.716044,1.363476 -0.130572,-0.06078 -0.239517,-0.13357 -0.278149,-0.245425 0.160017,-0.113722 0.727398,-0.01198 1.123504,-0.234518 -0.152161,-0.03152 -0.223335,-0.06223 -0.29451,-0.174525 0.374235,-0.119359 0.777345,-0.222218 1.014426,-0.419951 -0.127943,0.0016 -0.247399,0.02862 -0.414497,-0.08726 0.335199,-0.180642 0.692894,-0.323791 0.970795,-0.59993 -0.173312,-0.0042 -0.360169,-0.0017 -0.414497,-0.06545 0.306805,-0.190069 0.565657,-0.40145 0.779909,-0.632653 -0.242537,0.02928 -0.344961,0.0041 -0.403589,-0.03818 0.231912,-0.237535 0.525424,-0.438111 0.665376,-0.730823 -0.180081,0.06207 -0.344839,0.08582 -0.463582,-0.0055 0.07881,-0.177784 0.416459,-0.282647 0.610837,-0.698099 -0.189576,0.01838 -0.390642,0.04136 -0.430858,0 0.08816,-0.358635 0.239142,-0.56019 0.387227,-0.769001 -0.405738,-0.006 -1.020459,0.0016 -0.99261,-0.03272 l 0.250879,-0.256334 c -0.396314,-0.106705 -0.801841,0.01714 -1.096234,0.109078 -0.132185,-0.104305 0.0023,-0.236202 0.163617,-0.370865 -0.336806,0.04497 -0.64115,0.122396 -0.916256,0.229064 -0.146982,-0.132712 0.09544,-0.265423 0.212702,-0.398135 -0.52035,0.09872 -0.740799,0.237429 -0.959887,0.376319 -0.158957,-0.152364 -0.0091,-0.281853 0.09817,-0.414496 -0.392333,0.145312 -0.594421,0.332902 -0.807177,0.51812 -0.07213,-0.09735 -0.183259,-0.168702 -0.04909,-0.403588 -0.27856,0.160567 -0.48837,0.34978 -0.64356,0.561752 -0.172352,-0.109744 -0.102683,-0.259824 -0.103624,-0.398135 -0.289496,0.235494 -0.473216,0.486099 -0.6981,0.730823 -0.0453,-0.03299 -0.08497,-0.14485 -0.119986,-0.321781 -0.69067,0.67005 -1.666567,2.357748 -0.25088,3.026917 1.204204,-0.993895 2.643058,-1.716089 4.237684,-2.257916 z"
     style="fill:#7fba00;fill-opacity:1;stroke-width:0.03016634"
     id="path377"
     inkscape:connector-curvature="0" />
  <path
     d="m 26.505488,31.747348 a 2.455242,2.264037 0 1 1 -4.910484,0 2.455242,2.264037 0 1 1 4.910484,0 z"
     style="fill:#f25022;fill-opacity:1;stroke-width:0.03407522"
     id="path379"
     inkscape:connector-curvature="0" />
  <path
     d="m 22.629344,25.279725 a 2.2021079,2.5982175 34.034232 1 1 -2.864832,4.335274 2.2021079,2.5982175 34.034232 1 1 2.864832,-4.335274 z"
     style="fill:#f25022;fill-opacity:1;stroke-width:0.0573394"
     id="path381"
     inkscape:connector-curvature="0" />
  <path
     d="m 25.375452,25.15906 a 2.5982175,2.2021079 55.965768 1 0 2.864832,4.335274 2.5982175,2.2021079 55.965768 1 0 -2.864832,-4.335274 z"
     style="fill:#f25022;fill-opacity:1;stroke-width:0.0573394"
     id="path383"
     inkscape:connector-curvature="0" />
  <path
     d="m 17.544995,26.369497 c 1.098484,-0.294331 0.370793,4.544152 -0.522884,4.147141 -0.983024,-0.790741 -1.299659,-3.106392 0.522884,-4.147141 z"
     style="fill:#f25022;fill-opacity:1;stroke-width:0.03016634"
     id="path385"
     inkscape:connector-curvature="0" />
  <path
     d="m 30.238027,26.309164 c -1.098484,-0.29433 -0.370793,4.544152 0.522884,4.147141 0.983024,-0.790741 1.299659,-3.106392 -0.522884,-4.147141 z"
     style="fill:#f25022;fill-opacity:1;stroke-width:0.03016634"
     id="path387"
     inkscape:connector-curvature="0" />
  <path
     d="m 26.506248,22.706265 c 1.895498,-0.320068 3.472627,0.806114 3.40914,2.861518 -0.06235,0.787979 -4.10741,-2.744204 -3.40914,-2.861518 z"
     style="fill:#f25022;fill-opacity:1;stroke-width:0.03016634"
     id="path389"
     inkscape:connector-curvature="0" />
  <path
     d="m 21.269015,22.645933 c -1.895498,-0.320069 -3.472627,0.806113 -3.40914,2.861517 0.06235,0.787979 4.107411,-2.744204 3.40914,-2.861517 z"
     style="fill:#f25022;fill-opacity:1;stroke-width:0.03016634"
     id="path391"
     inkscape:connector-curvature="0" />
  <path
     d="m 23.991816,22.166357 c -1.131316,-0.02943 -2.21709,0.839655 -2.219687,1.343742 -0.0032,0.612505 0.894468,1.239615 2.2274,1.255534 1.361197,0.0098 2.229763,-0.501983 2.234152,-1.134076 0.005,-0.716148 -1.23799,-1.476264 -2.241865,-1.4652 z"
     style="fill:#f25022;fill-opacity:1;stroke-width:0.03016634"
     id="path393"
     inkscape:connector-curvature="0" />
  <path
     d="m 24.060898,34.726446 c 0.986362,-0.04305 2.309862,0.317711 2.312455,0.79627 0.01637,0.464719 -1.200309,1.514669 -2.377902,1.49437 -1.219543,0.05261 -2.415391,-0.998976 -2.399717,-1.363476 -0.01825,-0.534425 1.484968,-0.951686 2.465164,-0.927164 z"
     style="fill:#f25022;fill-opacity:1;stroke-width:0.03016634"
     id="path395"
     inkscape:connector-curvature="0" />
  <path
     d="m 20.41769,31.890416 c 0.702246,0.846037 1.022358,2.332431 0.436313,2.770584 -0.554433,0.334479 -1.90085,0.196733 -2.857846,-1.178043 -0.64541,-1.153612 -0.562227,-2.327533 -0.109078,-2.672413 0.67767,-0.412805 1.724713,0.144768 2.530611,1.079872 z"
     style="fill:#f25022;fill-opacity:1;stroke-width:0.03016634"
     id="path397"
     inkscape:connector-curvature="0" />
  <path
     d="m 27.563558,31.62218 c -0.759794,0.889957 -1.18289,2.513143 -0.628601,3.036025 0.52997,0.406148 1.952643,0.349375 3.003531,-1.108786 0.763087,-0.979342 0.507402,-2.614887 0.07152,-3.049067 -0.647493,-0.500825 -1.577004,0.14012 -2.446448,1.121828 z"
     style="fill:#f25022;fill-opacity:1;stroke-width:0.03016634"
     id="path399"
     inkscape:connector-curvature="0" />
</svg>
