/* XPM */
static char * bottom_active_xpm[] = {
"8 8 2 1",
" 	c None",
".	c #ccddff s active_hilight_1",
"........",
"........",
"........",
" .......",
" .......",
"  ......",
"   .....",
"     ..."};