<?xml version="1.0" encoding="UTF-8" standalone="no"?>
<!-- Created with Inkscape (http://www.inkscape.org/) -->

<svg
   xmlns:dc="http://purl.org/dc/elements/1.1/"
   xmlns:cc="http://creativecommons.org/ns#"
   xmlns:rdf="http://www.w3.org/1999/02/22-rdf-syntax-ns#"
   xmlns:svg="http://www.w3.org/2000/svg"
   xmlns="http://www.w3.org/2000/svg"
   xmlns:xlink="http://www.w3.org/1999/xlink"
   xmlns:sodipodi="http://sodipodi.sourceforge.net/DTD/sodipodi-0.dtd"
   xmlns:inkscape="http://www.inkscape.org/namespaces/inkscape"
   version="1.1"
   id="svg815"
   width="512"
   height="512"
   viewBox="0 0 512 512"
   sodipodi:docname="twister-os-2.svg"
   inkscape:version="0.92.4 (5da689c313, 2019-01-14)"
   inkscape:export-filename="C:\Users\MattSisterman\Desktop\twister-os-alt.png"
   inkscape:export-xdpi="72"
   inkscape:export-ydpi="72">
  <metadata
     id="metadata821">
    <rdf:RDF>
      <cc:Work
         rdf:about="">
        <dc:format>image/svg+xml</dc:format>
        <dc:type
           rdf:resource="http://purl.org/dc/dcmitype/StillImage" />
        <dc:title></dc:title>
      </cc:Work>
    </rdf:RDF>
  </metadata>
  <defs
     id="defs819">
    <linearGradient
       inkscape:collect="always"
       id="linearGradient1002">
      <stop
         style="stop-color:#999999;stop-opacity:1"
         offset="0"
         id="stop998" />
      <stop
         id="stop1026"
         offset="0.74141902"
         style="stop-color:#ffffff;stop-opacity:1" />
      <stop
         style="stop-color:#ffffff;stop-opacity:1"
         offset="1"
         id="stop1000" />
    </linearGradient>
    <linearGradient
       inkscape:collect="always"
       id="linearGradient994">
      <stop
         style="stop-color:#999999;stop-opacity:1"
         offset="0"
         id="stop990" />
      <stop
         id="stop1024"
         offset="0.48620191"
         style="stop-color:#ffffff;stop-opacity:1" />
      <stop
         style="stop-color:#ffffff;stop-opacity:1"
         offset="1"
         id="stop992" />
    </linearGradient>
    <linearGradient
       inkscape:collect="always"
       id="linearGradient986">
      <stop
         style="stop-color:#999999;stop-opacity:1"
         offset="0"
         id="stop982" />
      <stop
         id="stop1022"
         offset="0.52639586"
         style="stop-color:#ffffff;stop-opacity:1" />
      <stop
         style="stop-color:#ffffff;stop-opacity:1"
         offset="1"
         id="stop984" />
    </linearGradient>
    <linearGradient
       inkscape:collect="always"
       id="linearGradient978">
      <stop
         style="stop-color:#999999;stop-opacity:1"
         offset="0"
         id="stop974" />
      <stop
         id="stop1020"
         offset="0.5304299"
         style="stop-color:#ffffff;stop-opacity:1" />
      <stop
         style="stop-color:#ffffff;stop-opacity:1"
         offset="1"
         id="stop976" />
    </linearGradient>
    <linearGradient
       inkscape:collect="always"
       id="linearGradient970">
      <stop
         style="stop-color:#999999;stop-opacity:1"
         offset="0"
         id="stop966" />
      <stop
         id="stop1018"
         offset="0.56233805"
         style="stop-color:#ffffff;stop-opacity:1" />
      <stop
         style="stop-color:#ffffff;stop-opacity:1"
         offset="1"
         id="stop968" />
    </linearGradient>
    <linearGradient
       inkscape:collect="always"
       id="linearGradient962">
      <stop
         style="stop-color:#0040ff;stop-opacity:1;"
         offset="0"
         id="stop958" />
      <stop
         style="stop-color:#800080;stop-opacity:1"
         offset="1"
         id="stop960" />
    </linearGradient>
    <linearGradient
       inkscape:collect="always"
       xlink:href="#linearGradient962"
       id="linearGradient964"
       x1="0"
       y1="256"
       x2="512"
       y2="256"
       gradientUnits="userSpaceOnUse" />
    <linearGradient
       inkscape:collect="always"
       xlink:href="#linearGradient970"
       id="linearGradient972"
       x1="21.081505"
       y1="146.67337"
       x2="490.9185"
       y2="146.67337"
       gradientUnits="userSpaceOnUse"
       gradientTransform="matrix(0.8513591,0,0,0.8513591,38.05207,38.052071)" />
    <linearGradient
       inkscape:collect="always"
       xlink:href="#linearGradient978"
       id="linearGradient980"
       x1="161.32502"
       y1="247.5094"
       x2="460.11589"
       y2="247.5094"
       gradientUnits="userSpaceOnUse"
       gradientTransform="matrix(0.8513591,0,0,0.8513591,38.05207,38.052071)" />
    <linearGradient
       inkscape:collect="always"
       xlink:href="#linearGradient986"
       id="linearGradient988"
       x1="208.95819"
       y1="312.501"
       x2="410.83657"
       y2="312.501"
       gradientUnits="userSpaceOnUse"
       gradientTransform="matrix(0.8513591,0,0,0.8513591,38.05207,38.052071)" />
    <linearGradient
       inkscape:collect="always"
       xlink:href="#linearGradient994"
       id="linearGradient996"
       x1="216.96225"
       y1="374.53978"
       x2="370.44755"
       y2="374.53978"
       gradientUnits="userSpaceOnUse"
       gradientTransform="matrix(0.8513591,0,0,0.8513591,38.05207,38.052071)" />
    <linearGradient
       inkscape:collect="always"
       xlink:href="#linearGradient1002"
       id="linearGradient1004"
       x1="180.50575"
       y1="422.89447"
       x2="308.76513"
       y2="422.89447"
       gradientUnits="userSpaceOnUse"
       gradientTransform="matrix(0.8513591,0,0,0.8513591,38.05207,38.052071)" />
  </defs>
  <sodipodi:namedview
     pagecolor="#ffffff"
     bordercolor="#666666"
     borderopacity="1"
     objecttolerance="10"
     gridtolerance="10"
     guidetolerance="10"
     inkscape:pageopacity="0"
     inkscape:pageshadow="2"
     inkscape:window-width="1920"
     inkscape:window-height="1023"
     id="namedview817"
     showgrid="false"
     inkscape:zoom="0.8359833"
     inkscape:cx="440.99292"
     inkscape:cy="272.79135"
     inkscape:window-x="0"
     inkscape:window-y="31"
     inkscape:window-maximized="1"
     inkscape:current-layer="svg815"
     inkscape:snap-global="false" />
  <rect
     style="fill:url(#linearGradient964);fill-opacity:1;stroke-width:1.65231347"
     id="rect936"
     width="512"
     height="512"
     x="0"
     y="0"
     ry="55.025021" />
  <g
     id="g1015"
     style="opacity:0.3;fill:#000000"
     transform="translate(-699.77474,76.556553)">
    <path
       inkscape:connector-curvature="0"
       id="path835-1"
       d="m 901.694,383.86319 c -11.32097,-1.87176 -13.05416,-2.3214 -13.05416,-3.38659 0,-0.59603 1.14933,-1.08412 2.55408,-1.0846 4.46833,-8.5e-4 16.49496,-6.50181 21.74732,-11.75416 2.7904,-2.7904 6.34197,-7.57673 7.89234,-10.63625 3.36078,-6.63218 5.72134,-18.52901 4.72759,-23.82619 l -0.71346,-3.80306 5.31771,4.05911 c 2.92475,2.23251 6.90985,4.88583 8.85577,5.89627 15.04617,7.81285 42.84431,9.11859 70.79541,3.32541 3.9021,-0.80875 7.0892,-1.1739 7.0826,-0.81146 -0.028,1.50486 -8.8324,11.55218 -13.0421,14.88255 -17.06219,13.49813 -41.80678,22.67438 -71.72323,26.59776 -14.36635,1.88408 -21.54576,2.01172 -30.43987,0.54121 z"
       style="fill:#000000;fill-opacity:1;stroke-width:1.13514555" />
    <path
       inkscape:connector-curvature="0"
       id="path833-8"
       d="m 965.26216,332.26914 c -10.60961,-1.96586 -20.02948,-5.62666 -25.86124,-10.05034 -8.47863,-6.43144 -15.13858,-18.85345 -14.21969,-26.52227 l 0.35083,-2.92801 3.61794,3.05546 c 4.81988,4.07051 18.44091,10.21383 27.71388,12.49945 24.01524,5.91927 51.38922,4.32536 78.77732,-4.58698 9.6448,-3.13855 30.7353,-12.89199 39.0478,-18.05795 5.1314,-3.18903 5.1578,-2.78874 0.267,4.0379 -8.5338,11.91148 -20.1557,21.48101 -35.1502,28.94276 -26.4887,13.18165 -51.85775,17.81345 -74.54364,13.60998 z"
       style="fill:#000000;fill-opacity:1;stroke-width:1.13514555" />
    <path
       inkscape:connector-curvature="0"
       id="path831-7"
       d="m 977.74876,289.07411 c -27.49452,-3.77161 -43.28892,-10.47701 -56.1897,-23.85493 -3.43382,-3.5608 -5.2859,-6.1379 -4.11573,-5.72688 16.90144,5.93679 60.09879,8.28413 86.48597,4.69966 22.9443,-3.11679 35.3639,-6.98638 56.6851,-17.6615 17.1651,-8.59426 31.755,-18.98163 46.7338,-33.27241 12.931,-12.33697 13.461,-12.27245 9.3266,1.13539 -5.5708,18.06613 -16.3563,33.86057 -31.6874,46.40344 -22.6087,18.4969 -49.9078,27.46376 -86.23846,28.32653 -9.6771,0.22983 -19.12719,0.20763 -21.00018,-0.0493 z"
       style="fill:#000000;fill-opacity:1;stroke-width:1.13514555" />
    <path
       inkscape:connector-curvature="0"
       id="path829-9"
       d="m 940.85653,246.057 c -14.92165,-2.18095 -29.97494,-6.92278 -44.27068,-13.94538 l -13.05417,-6.4127 25.54078,-1.9573 c 43.70832,-3.34956 73.53851,-10.0457 110.82284,-24.87703 40.4823,-16.10343 74.9697,-38.49213 105.2894,-68.35234 6.8148,-6.71154 12.5075,-12.20281 12.6502,-12.20281 0.6451,0 -3.0175,15.19093 -5.2348,21.71217 -3.6545,10.7481 -11.9736,26.34798 -19.2425,36.08332 -9.0085,12.06516 -28.0711,30.09072 -40.7881,38.5691 -38.3477,25.56618 -88.97641,37.6294 -131.71297,31.38297 z"
       style="fill:#000000;fill-opacity:1;stroke-width:1.13514555" />
    <path
       inkscape:connector-curvature="0"
       id="path825-2"
       d="m 917.58605,197.76952 c 1.24866,-0.53988 10.88422,-4.37395 21.41236,-8.52013 44.62553,-17.57442 85.95039,-40.57336 115.25049,-64.14157 18.9262,-15.2236 32.6636,-32.28662 36.94,-45.88259 2.7351,-8.69539 2.0759,-23.03315 -1.3655,-29.69956 -4.6614,-9.02998 -15.9408,-16.24519 -29.3292,-18.76124 -10.6509,-2.00162 -40.4592,-0.50544 -56.0695,2.81434 C 948.16694,45.54284 878.70411,81.9 841.45656,118.87702 c -16.61771,16.49699 -19.27355,25.96146 -9.77213,34.82429 6.52411,6.08562 11.50652,7.18015 32.54978,7.15047 30.45418,-0.0429 64.89255,-7.94608 109.42546,-25.11161 7.11596,-2.7429 13.14013,-4.78506 13.38704,-4.53815 0.9639,0.96389 -21.75851,19.4248 -33.92295,27.56084 -24.8019,16.58843 -53.96515,28.8266 -84.16438,35.319 -12.37052,2.65948 -21.98597,3.74535 -37.95554,4.32635 -14.32341,-0.18628 -25.48892,-1.42394 -35.41706,-4.03879 -25.42775,-6.69711 -36.11598,-20.33525 -29.57094,-37.73241 3.65926,-9.72653 10.02066,-18.47939 22.98781,-31.62968 18.41622,-18.67634 38.67715,-34.13306 67.28454,-51.33024 52.63702,-31.64247 106.90824,-52.54416 178.78541,-68.8563405 2.8095,-0.6376 11.6817,-2.55047 19.4858,-3.7904 7.8041,-1.23992 15.192,-2.54745 22.5146,-3.50173 7.8834,-1.02737 20.2924,-1.80597 32.2806,-1.94522 11.062,0.1593 20.4345,1.051 28.6879,3.38958 11.7954,3.34217 18.5957,7.63126 22.4049,14.1311305 6.2854,10.72525 4.6143,23.92116 -5.6323,44.47505 -8.4534,16.95704 -18.3791,29.94641 -37.3468,48.87449 -46.5545,46.45719 -107.6506,76.18105 -184.21405,89.62194 -17.19112,3.01794 -19.2437,3.23985 -15.6682,1.69393 z"
       style="fill:#000000;fill-opacity:1;stroke-width:1.13514555"
       sodipodi:nodetypes="sssscsssscscsscssssssscscssss" />
  </g>
  <path
     style="fill:url(#linearGradient1004);fill-opacity:1;stroke-width:1.13514555"
     d="m 193.55991,449.63995 c -11.32097,-1.87176 -13.05416,-2.3214 -13.05416,-3.38659 0,-0.59603 1.14933,-1.08412 2.55408,-1.0846 4.46833,-8.5e-4 16.49496,-6.50181 21.74732,-11.75416 2.7904,-2.7904 6.34197,-7.57673 7.89234,-10.63625 3.36078,-6.63218 5.72134,-18.52901 4.72759,-23.82619 l -0.71346,-3.80306 5.31771,4.05911 c 2.92475,2.23251 6.90985,4.88583 8.85577,5.89627 15.04617,7.81285 42.84431,9.11859 70.79542,3.32541 3.90206,-0.80875 7.08923,-1.1739 7.0826,-0.81146 -0.0276,1.50486 -8.83238,11.55218 -13.04212,14.88255 -17.06218,13.49813 -41.80677,22.67438 -71.72322,26.59776 -14.36635,1.88408 -21.54576,2.01172 -30.43987,0.54121 z"
     id="path835"
     inkscape:connector-curvature="0" />
  <path
     style="fill:url(#linearGradient996);fill-opacity:1;stroke-width:1.13514555"
     d="m 257.12807,398.0459 c -10.60961,-1.96586 -20.02948,-5.62666 -25.86124,-10.05034 -8.47863,-6.43144 -15.13858,-18.85345 -14.21969,-26.52227 l 0.35083,-2.92801 3.61794,3.05546 c 4.81988,4.07051 18.44091,10.21383 27.71388,12.49945 24.01524,5.91927 51.38923,4.32536 78.77729,-4.58698 9.64485,-3.13855 30.73532,-12.89199 39.0478,-18.05795 5.13141,-3.18903 5.15788,-2.78874 0.26704,4.0379 -8.53381,11.91148 -20.15575,21.48101 -35.15025,28.94276 -26.4887,13.18165 -51.85771,17.81345 -74.5436,13.60998 z"
     id="path833"
     inkscape:connector-curvature="0" />
  <path
     style="fill:url(#linearGradient988);fill-opacity:1;stroke-width:1.13514555"
     d="m 269.61467,354.85087 c -27.49452,-3.77161 -43.28892,-10.47701 -56.1897,-23.85493 -3.43382,-3.5608 -5.2859,-6.1379 -4.11573,-5.72688 16.90144,5.93679 60.09879,8.28413 86.48595,4.69966 22.94436,-3.11679 35.36393,-6.98638 56.68509,-17.6615 17.16513,-8.59426 31.75505,-18.98163 46.73387,-33.27241 12.93093,-12.33697 13.46094,-12.27245 9.32656,1.13539 -5.57078,18.06613 -16.35629,33.86057 -31.68742,46.40344 -22.60872,18.4969 -49.90776,27.46376 -86.23844,28.32653 -9.6771,0.22983 -19.12719,0.20763 -21.00018,-0.0493 z"
     id="path831"
     inkscape:connector-curvature="0" />
  <path
     style="fill:url(#linearGradient980);fill-opacity:1;stroke-width:1.13514555"
     d="m 232.72244,311.83376 c -14.92165,-2.18095 -29.97494,-6.92278 -44.27068,-13.94538 l -13.05417,-6.4127 25.54078,-1.9573 c 43.70832,-3.34956 73.53851,-10.0457 110.82285,-24.87703 40.48228,-16.10343 74.96965,-38.49213 105.28939,-68.35234 6.81483,-6.71154 12.50746,-12.20281 12.65025,-12.20281 0.64502,0 -3.01758,15.19093 -5.23488,21.71217 -3.65449,10.7481 -11.97358,26.34798 -19.24247,36.08332 -9.00845,12.06516 -28.07109,30.09072 -40.78812,38.5691 -38.34764,25.56618 -88.97639,37.6294 -131.71295,31.38297 z"
     id="path829"
     inkscape:connector-curvature="0" />
  <path
     sodipodi:nodetypes="sssscsssscscsscssssssscscssss"
     style="fill:url(#linearGradient972);fill-opacity:1;stroke-width:1.13514555"
     d="m 209.45196,263.54628 c 1.24866,-0.53988 10.88422,-4.37395 21.41236,-8.52013 44.62553,-17.57442 85.95035,-40.57336 115.25054,-64.14157 18.92612,-15.2236 32.66352,-32.28662 36.93997,-45.88259 2.73504,-8.69539 2.07584,-23.03315 -1.36548,-29.69956 -4.66143,-9.02998 -15.94084,-16.245183 -29.32919,-18.761239 -10.65098,-2.001622 -40.45924,-0.505435 -56.06957,2.814338 -56.25774,11.964071 -125.72057,48.321231 -162.96812,85.298251 -16.61771,16.49699 -19.27355,25.96146 -9.77213,34.82429 6.52411,6.08562 11.50652,7.18015 32.54978,7.15047 30.45418,-0.0429 64.89255,-7.94608 109.42546,-25.11161 7.11596,-2.7429 13.14013,-4.78506 13.38704,-4.53815 0.9639,0.96389 -21.75851,19.4248 -33.92295,27.56084 -24.8019,16.58843 -53.96515,28.8266 -84.16438,35.319 -12.37052,2.65948 -21.98597,3.74535 -37.95554,4.32635 -14.32341,-0.18628 -25.48892,-1.42394 -35.417062,-4.03879 -25.427755,-6.69711 -36.115981,-20.33525 -29.570936,-37.73241 3.659252,-9.72653 10.020658,-18.47939 22.987802,-31.62968 18.416226,-18.67634 38.677156,-34.13306 67.284546,-51.33024 52.63702,-31.64247 106.90824,-52.544161 178.78541,-68.856337 2.80949,-0.6376 11.6817,-2.550468 19.48583,-3.790396 7.80411,-1.239928 15.192,-2.547454 22.51454,-3.501734 7.88344,-1.027369 20.29239,-1.805972 32.28061,-1.945221 11.062,0.159298 20.43449,1.051005 28.68794,3.389586 11.79537,3.342164 18.59571,7.631251 22.40488,14.131122 6.28543,10.725252 4.61432,23.92116 -5.63226,44.47505 -8.45345,16.95704 -18.37913,29.94641 -37.34684,48.87449 -46.55447,46.45719 -107.6506,76.18105 -184.21405,89.62194 -17.19112,3.01794 -19.2437,3.23985 -15.6682,1.69393 z"
     id="path825"
     inkscape:connector-curvature="0" />
</svg>
